<?xml version="1.0" encoding="utf-8"?>
<!-- Generator: Adobe Illustrator 24.1.2, SVG Export Plug-In . SVG Version: 6.00 Build 0)  -->
<svg version="1.1" id="Layer_1" xmlns="http://www.w3.org/2000/svg" xmlns:xlink="http://www.w3.org/1999/xlink" x="0px" y="0px"
	 viewBox="0 0 1920 1080" style="enable-background:new 0 0 1920 1080;" xml:space="preserve">
<style type="text/css">
	.st0{fill:#30303A;}
	.st1{fill:#FFFFFF;}
	.st2{fill:#ECD317;}
	.st3{fill:#CAB209;}
	.st4{fill:none;}
	.st5{fill:#AD960E;}
	.st6{fill:#43434F;}
</style>
<g>
	<path class="st0" d="M1083.1,134.97c-0.5-0.4-1.59-1.13-3.13-1.47c0.03-1.33,0.07-2.67,0.12-4.01c0.11-3.19-1.22-5.24-2.35-6.4
		c-0.81-0.82-2.08-1.77-3.9-2.22c-0.34-1.94-1.27-3.3-2.1-4.17c-0.82-0.86-2.12-1.85-4.02-2.3c-0.37-1.93-1.31-3.28-2.15-4.14
		c-0.83-0.85-2.14-1.83-4.04-2.27c-0.31-1.47-0.97-2.78-1.96-3.88c-1.63-1.8-3.91-2.76-6.6-2.79c-1.28-0.01-2.57-0.04-3.85-0.07
		c-0.31-1.37-0.95-2.61-1.89-3.66c-1.6-1.79-3.85-2.76-6.51-2.82c-8.91-0.18-17.83-0.39-26.74-0.61l-8.27-0.2l-0.18,0
		c-2.27-0.17-4.42,0.53-6.06,1.98c-0.77,0.68-1.93,1.99-2.46,4.07c-1.36-0.03-2.73-0.06-4.09-0.11c-2.56-0.09-4.73,0.71-6.41,2.36
		c-0.82,0.81-1.76,2.07-2.2,3.88c-2.11,0.26-3.98,1.37-5.27,3.19l-2.19,3.23c-1.5,0.49-2.52,1.29-3.1,1.84
		c-0.86,0.82-1.84,2.13-2.3,4.04c-1.96,0.39-3.29,1.36-3.99,2.01c-1.71,1.58-2.63,3.75-2.67,6.3c-0.02,1.33-0.05,2.67-0.08,4
		c-0.93,0.17-1.81,0.5-2.64,1c-1.91,1.16-3.2,3.04-3.63,5.29l-0.17,1.99c-0.02,0.55-0.05,1.11-0.06,1.66
		c-0.27,11.2-0.53,22.4-0.79,33.5c-0.21,2.52,0.51,4.75,2.08,6.46c0.67,0.73,1.95,1.83,3.97,2.34c-0.04,1.36-0.07,2.73-0.12,4.09
		c-0.08,2.54,0.74,4.76,2.37,6.41c0.81,0.82,2.08,1.76,3.9,2.2c0.36,1.93,1.28,3.28,2.1,4.14c0.66,0.7,1.44,1.26,2.29,1.69
		l3.73,4.65c0.03,0.03,0.05,0.05,0.08,0.08c0.83,0.86,2.14,1.85,4.05,2.3c0.36,1.86,1.25,3.18,2.04,4.02
		c1.11,1.19,3.09,2.61,6.28,2.64c1.33,0.01,2.67,0.04,4,0.07c0.27,1.56,0.96,2.68,1.33,3.21c1.41,1.95,3.63,3.12,6.02,3.2l0.24,0.01
		c0.37,0.02,0.75,0.05,1.13,0.05l34.59,0.82l0.32,0c0.25,0.02,0.5,0.03,0.75,0.03h0c1.99,0,3.89-0.71,5.35-1.98
		c0.78-0.69,1.97-2.02,2.5-4.11c1.39,0.04,2.78,0.08,4.17,0.12c3.13,0.1,5.16-1.21,6.32-2.35c0.82-0.81,1.76-2.07,2.2-3.88
		c2.75-0.42,4.7-2.26,5.65-3.98l1.23-2.24c1.74-0.42,2.96-1.3,3.73-2.03c0.85-0.82,1.82-2.1,2.26-4.01c1.21-0.2,2.7-0.72,4.07-2
		c2.48-2.3,2.56-5.18,2.59-6.55l0.11-3.93c1.38-0.32,2.62-0.96,3.66-1.89c1.79-1.6,2.76-3.85,2.8-6.5c0.11-6.1,0.26-12.2,0.41-18.3
		l0.18-7.58c0.05-2.37,0.1-4.74,0.14-7.11l0.06-2.91C1086.11,138.89,1085.01,136.49,1083.1,134.97z M1063.88,178.96l-0.12,4.3
		c-1.8,0.37-3.09,1.25-3.93,2.04c-0.85,0.8-1.81,2.04-2.29,3.87l-5.16-0.27l-0.05,0.25l-1.39-0.02v6.38
		c-1.78,0.4-3.06,1.27-3.89,2.05c-0.85,0.8-1.83,2.05-2.33,3.86l-12.98-0.31l-0.03,6.27l-22.32-0.53l0.02-0.97l-1.52-2.07
		c-0.99-1.35-3.26-3.6-7.27-3.42l-1.11-0.03c-0.84-0.02-1.68-0.05-2.53-0.07l0.17-6.46l-6.06,0l1.21-6.07l-6.63-0.2l2.49-6.39
		l-3.3-0.06l0-0.13l-6.28,0l0.31-12.69l-6.27-0.03c0.18-7.53,0.35-15.07,0.53-22.6c2.46-0.56,3.95-2.04,4.69-3
		c1.16-1.5,1.76-3.31,1.78-5.38c0.02-1.24,0.04-2.49,0.07-3.73l6.47,0.18v-6.43l7.74,0.1l-0.9-6.12l6,0.08v-6.22
		c1.16,0.03,2.32,0.06,3.48,0.1c2.73,0.08,5.09-0.77,6.81-2.49c0.63-0.64,1.58-1.82,2.09-3.57l2.41,0.06
		c6.66,0.16,13.32,0.32,19.98,0.46l-1.17,7.99l9.46-1.58l2.36,0.07c0.75,0.02,1.5,0.05,2.24,0.07c0.37,1.81,1.26,3.1,2.05,3.94
		c0.81,0.85,2.07,1.82,3.93,2.29l-0.11,6.59l6.14,0l-0.09,3.35l0.13,3.04l6.11,0.12c-0.02,0.83-0.03,1.67-0.05,2.5l-0.01,1.07
		c-0.26,3.08,0.92,5.86,3.24,7.62l1.94,1.47l0.84,0.02c-0.02,0.93-0.04,1.87-0.06,2.8l-0.18,7.57c-0.09,3.91-0.19,7.82-0.27,11.73
		l-8.9-1.34L1063.88,178.96z"/>
	<g>
		<path class="st1" d="M1002.48,207.95c-0.7,0.07-0.72-0.37-0.7-0.89c0.06-1.78,0.09-3.56,0.12-5.33c0.03-0.03,0.06-0.06,0.09-0.09
			c12.46,0.3,24.92,0.6,37.38,0.89c0.02,0.03,0.05,0.06,0.07,0.09c-0.06,2.07-0.13,4.15-0.19,6.22
			C1027,208.54,1014.74,208.24,1002.48,207.95z"/>
		<path class="st1" d="M977.4,176.01c-2.08-0.06-4.15-0.12-6.23-0.19c0.29-12.33,0.59-24.66,0.88-36.99
			c0.04-0.64,0.53-0.47,0.89-0.47c1.78,0.03,3.56,0.08,5.35,0.12l0.06,0.05c-0.3,12.47-0.59,24.95-0.89,37.42L977.4,176.01z"/>
		<path class="st1" d="M1065.93,140.58c1.85,0.03,3.7,0.07,5.55,0.1c0.36,0.01,0.77-0.04,0.76,0.51
			c-0.29,12.03-0.57,24.06-0.86,36.09c-0.01,0.29,0.03,0.58,0.05,0.87c-2.1-0.02-4.19-0.05-6.29-0.07l-0.08-0.07
			c0.02-0.44,0.05-0.88,0.06-1.32c0.27-11.53,0.55-23.06,0.82-34.58C1065.96,141.61,1065.94,141.09,1065.93,140.58z"/>
		<path class="st1" d="M1003.99,113.97c0.04-1.78,0.07-3.56,0.13-5.35c0.01-0.37-0.14-0.86,0.51-0.87
			c12.03,0.29,24.06,0.57,36.09,0.86c0.29,0.01,0.58-0.03,0.87-0.05c-0.03,2.1-0.05,4.2-0.08,6.3l-0.05,0.05
			c-12.47-0.3-24.95-0.59-37.42-0.89L1003.99,113.97z"/>
		<path class="st1" d="M1041.51,114.86c3.84,0.1,7.68,0.23,11.52,0.28c0.83,0.01,1.05,0.23,1,1.05c-0.11,1.72-0.1,3.44-0.14,5.16
			l-0.07,0.07c-4.14-0.09-8.27-0.17-12.41-0.26c-0.03-0.03-0.06-0.06-0.09-0.09c0.05-2.05,0.1-4.11,0.14-6.16L1041.51,114.86z"/>
		<path class="st1" d="M1060.25,121.54c-0.12,2.12-0.21,4.24-0.13,6.36c-0.03,0.03-0.06,0.05-0.09,0.08
			c-2.11-0.07-4.21-0.15-6.32-0.22l0.01,0.01c0.03-2.11,0.06-4.23,0.09-6.34l0.07-0.07
			C1056.01,121.54,1058.13,121.55,1060.25,121.54z"/>
		<path class="st1" d="M1065.07,178.02c-1.69-0.03-3.37-0.09-5.06-0.06c-0.36,0.01-0.59-0.07-0.76-0.19
			c-0.32,0.07-0.64,0.14-0.96,0.23c0.29,0.14,0.44,0.41,0.46,0.95c0.14,3.82-0.09,7.62-0.19,11.43l0.08,0.08
			c1.72,0.04,3.44,0.04,5.16,0.15c0.81,0.05,1.05-0.15,1.06-0.99c0.06-3.84,0.19-7.68,0.29-11.52L1065.07,178.02z"/>
		<path class="st1" d="M1060.12,127.9c-0.03,0.03-0.06,0.05-0.09,0.08c-0.08,3.78-0.16,7.55-0.22,11.33c0,0.08-0.02,0.14-0.03,0.21
			c0.31,0.28,0.58,0.6,0.78,0.95c0.18-0.01,0.39-0.01,0.66,0c1.54,0.03,3.08,0.06,4.62,0.1c0.06-0.38,0.15-0.77,0.16-1.15
			c0.1-3.79,0.18-7.58,0.27-11.37C1064.23,128,1062.17,127.95,1060.12,127.9z"/>
		<path class="st1" d="M1058.46,196.81c-0.29,0-0.58,0-0.87-0.01c-1.69-0.04-3.38-0.08-5.06-0.12c-0.14,0-0.28,0-0.42,0.01
			l-0.07-0.08c0.07-2.11,0.14-4.22,0.22-6.33l-0.02,0.01c2.11,0.03,4.22,0.05,6.33,0.08l0.08,0.08
			C1058.46,192.57,1058.45,194.69,1058.46,196.81z"/>
		<path class="st1" d="M991.33,119.89c0.05-2.06,0.1-4.11,0.14-6.17c4.17,0.08,8.34,0.17,12.52,0.25l0.05,0.06
			c-0.05,2.06-0.1,4.11-0.15,6.17l0.01-0.01c-4.18-0.09-8.36-0.19-12.55-0.28L991.33,119.89z"/>
		<path class="st1" d="M1052.14,197.12c-0.04,1.76-0.08,3.52-0.12,5.28c-0.1,0.71-0.66,0.43-1.03,0.43
			c-3.85-0.06-7.7-0.14-11.54-0.22c-0.02-0.03-0.05-0.06-0.07-0.09c0.06-2.05,0.11-4.1,0.17-6.15l-0.01,0.01
			c4.17,0.08,8.33,0.15,12.5,0.23l0.07,0.08C1052.12,196.83,1052.13,196.98,1052.14,197.12z"/>
		<path class="st1" d="M978.63,125.98c2.06,0.04,4.11,0.08,6.17,0.13c-0.1,4.19-0.2,8.39-0.3,12.58l0.01-0.01
			c-2.06-0.05-4.11-0.09-6.17-0.14l-0.06-0.05C978.41,134.32,978.52,130.15,978.63,125.98z"/>
		<path class="st1" d="M989.41,201.37c0.04-2.06,0.08-4.11,0.13-6.17c4.17,0.08,8.35,0.15,12.52,0.23c0,0,0.06,0.06,0.06,0.06
			c-0.04,2.05-0.08,4.09-0.11,6.14c-0.03,0.03-0.06,0.06-0.09,0.09C997.74,201.61,993.57,201.49,989.41,201.37z"/>
		<path class="st1" d="M983.32,188.69c-2.06-0.06-4.11-0.11-6.17-0.17c0.08-4.17,0.17-8.34,0.25-12.51l0.06-0.05
			c2.06,0.05,4.11,0.1,6.17,0.15l-0.01-0.01C983.52,180.3,983.42,184.5,983.32,188.69z"/>
		<path class="st1" d="M991.2,126.28c-1.68-0.04-3.37-0.12-5.05-0.1c-0.71,0.01-1.11-0.22-1.22-0.91c0.06-1.84-0.12-3.69,0.25-5.51
			c2.05,0.13,4.11,0.19,6.16,0.14l0.02,0.02C991.3,122.03,991.24,124.16,991.2,126.28L991.2,126.28z"/>
		<path class="st1" d="M983.41,189.1c0.35-0.38,0.81-0.43,1.3-0.41c1.67,0.05,3.34,0.08,5.01,0.12l-0.01-0.01
			c-0.02,0.84,0,1.68-0.07,2.51c-0.1,1.26,0.17,2.55-0.29,3.78c-1.55-0.04-3.09-0.08-4.64-0.12c-0.21-0.18-0.43-0.18-0.65-0.02
			c-0.21-0.01-0.43-0.02-0.64-0.04c-0.05-0.11-0.09-0.22-0.14-0.32C983.33,192.77,983.37,190.94,983.41,189.1z"/>
		<path class="st1" d="M1008.56,183.08c-1.65-0.04-3.3-0.13-4.95-0.1c-0.97,0.02-1.25-0.32-1.22-1.29
			c0.26-9.67,0.48-19.35,0.71-29.02c0.15-6.19,0.32-12.39,0.42-18.58c0.02-1.08,0.37-1.39,1.42-1.32c1.61,0.11,3.22,0.09,4.84,0.13
			l-0.01-0.01c-0.11,4.91-0.21,9.81-0.33,14.72C1009.14,159.43,1008.85,171.26,1008.56,183.08L1008.56,183.08z"/>
		<path class="st1" d="M1009.77,132.9c0.04-1.72,0.11-3.44,0.12-5.16c0-0.75,0.26-1.03,1.03-1.01c7.69,0.2,15.38,0.39,23.07,0.55
			c0.77,0.02,1.03,0.29,1,1.05c-0.07,1.72-0.09,3.44-0.13,5.16l0,0c-8.37-0.2-16.74-0.4-25.1-0.59L1009.77,132.9z"/>
		<g>
			<path class="st2" d="M1039.24,208.83c0.01,0,0.01,0,0.02,0c0,0,0-0.01,0-0.01C1039.25,208.82,1039.24,208.82,1039.24,208.83
				C1039.24,208.82,1039.24,208.83,1039.24,208.83z"/>
			<path class="st2" d="M971.17,175.81c0,0.01,0,0.01,0,0.02c0,0,0,0,0.01,0C971.18,175.82,971.18,175.81,971.17,175.81
				C971.18,175.81,971.18,175.81,971.17,175.81z"/>
			<path class="st2" d="M1041.59,108.57c0,0-0.01,0-0.01,0c0,0,0,0,0,0L1041.59,108.57z"/>
			<path class="st2" d="M1053.04,115.15c0.83,0.01,1.05,0.23,1,1.05c-0.11,1.72-0.1,3.44-0.14,5.16c2.11,0.18,4.22,0.19,6.33,0.18
				c0.04-1.76,0.05-3.51,0.12-5.27c0.03-0.71-0.18-0.98-0.91-0.97c-1.5,0.02-3.01-0.08-4.51-0.08c-0.66,0-0.9-0.22-0.87-0.9
				c0.07-1.35,0.01-2.72,0.13-4.07c0.09-1.04-0.2-1.39-1.29-1.4c-3.77-0.04-7.54-0.19-11.31-0.29c-0.03,2.1-0.05,4.2-0.08,6.3
				C1045.35,114.97,1049.2,115.09,1053.04,115.15z"/>
			<path class="st2" d="M1041.59,108.57l-0.01,0C1041.58,108.57,1041.58,108.57,1041.59,108.57
				C1041.59,108.57,1041.59,108.57,1041.59,108.57z"/>
			<path class="st2" d="M1071.44,178.16C1071.44,178.16,1071.44,178.16,1071.44,178.16c0-0.01,0-0.01,0-0.02c0,0,0,0,0,0
				C1071.44,178.15,1071.44,178.16,1071.44,178.16z"/>
			<path class="st2" d="M1064.86,189.62c-0.01,0.84-0.25,1.04-1.06,0.99c-1.72-0.11-3.44-0.1-5.16-0.15
				c-0.18,2.11-0.19,4.22-0.18,6.33c1.79,0.04,3.58,0.06,5.37,0.12c0.61,0.02,0.85-0.17,0.85-0.8c0-1.54,0.08-3.08,0.09-4.62
				c0-0.65,0.22-0.91,0.9-0.87c1.24,0.07,2.49,0.09,3.74,0.1c1.75,0.01,1.65,0.39,1.7-1.58c0.1-3.66,0.21-7.32,0.31-10.97
				c-2.1-0.02-4.19-0.05-6.29-0.07C1065.05,181.93,1064.91,185.77,1064.86,189.62z"/>
			<path class="st2" d="M1004.12,108.63c0.01-0.37-0.14-0.86,0.51-0.87c12.03,0.29,24.06,0.57,36.09,0.86
				c0.29,0.01,0.57-0.03,0.86-0.05c0.24-1.64,0.08-3.3,0.23-4.94c0.09-0.99-0.2-1.29-1.23-1.32c-11.67-0.24-23.33-0.53-35-0.8
				c-0.18,0-0.37,0.01-0.55-0.01c-0.59-0.07-0.77,0.21-0.76,0.76c0,1.43-0.03,2.86-0.05,4.29c0.04,1.04-0.53,1.21-1.45,1.18
				c-3.36-0.13-6.73-0.16-10.1-0.27c-0.78-0.03-1.11,0.16-1.1,1.01c0.03,1.75-0.05,3.51-0.08,5.26c4.17,0.08,8.33,0.17,12.5,0.25
				C1004.03,112.19,1004.07,110.41,1004.12,108.63z"/>
			<path class="st2" d="M991.49,113.72c0,0-0.01,0-0.01,0L991.49,113.72C991.49,113.73,991.49,113.73,991.49,113.72z"/>
			<path class="st2" d="M972.95,138.36c1.78,0.03,3.56,0.08,5.35,0.12c0.11-4.17,0.23-8.33,0.34-12.5
				c-1.75-0.05-3.51-0.05-5.26-0.17c-0.86-0.06-1.05,0.27-1.07,1.05c-0.05,3.44-0.17,6.88-0.22,10.32
				c-0.01,0.76-0.22,1.18-1.02,1.17c-1.54-0.04-3.08-0.07-4.62-0.11c-0.25-0.06-0.54-0.24-0.63,0.21c-0.03,0.81-0.08,1.61-0.09,2.42
				c-0.27,11.22-0.53,22.44-0.79,33.66c-0.01,0.54-0.27,1.22,0.74,1.21c1.83-0.02,3.66,0.04,5.49,0.06
				c0.29-12.33,0.59-24.65,0.88-36.98C972.09,138.19,972.58,138.36,972.95,138.36z"/>
			<path class="st2" d="M1066.28,128.06c0,0,0-0.01,0-0.01c0,0-0.01,0-0.01,0c0,0,0,0.01,0,0.01
				C1066.27,128.06,1066.28,128.06,1066.28,128.06z"/>
			<path class="st2" d="M1001.78,207.06c0.06-1.78,0.09-3.56,0.12-5.33c-4.16-0.12-8.32-0.24-12.48-0.35
				c-0.05,1.75-0.07,3.5-0.17,5.25c-0.05,0.83,0.22,1.06,1.04,1.07c3.4,0.04,6.81,0.14,10.21,0.23c0.45,0.01,0.97-0.14,1.31,0.34
				c-0.04,1.83-0.09,3.67-0.13,5.5c-0.08,0.21-0.14,0.42,0.21,0.41c0.4,0.02,0.8,0.06,1.21,0.06c11.51,0.27,23.03,0.55,34.54,0.82
				c0.26,0.01,0.52-0.01,0.77,0.02c0.6,0.08,0.76-0.22,0.76-0.76c0.01-1.83,0.04-3.66,0.06-5.49c-12.25-0.29-24.5-0.58-36.76-0.88
				C1001.78,208.02,1001.76,207.58,1001.78,207.06z"/>
			<path class="st2" d="M971.18,175.82c-0.1,3.84-0.17,7.68-0.3,11.51c-0.03,0.78,0.16,1.11,1.01,1.1c1.75-0.03,3.51,0.05,5.26,0.08
				c0.08-4.17,0.17-8.34,0.25-12.5C975.33,175.95,973.25,175.88,971.18,175.82z"/>
			<polygon class="st2" points="977.15,188.51 977.15,188.52 977.16,188.52 977.16,188.51 			"/>
			<path class="st2" d="M978.64,125.98c0,0-0.01,0-0.01,0c0,0,0,0.01,0,0.01c0,0,0.01,0,0.01,0
				C978.64,125.98,978.64,125.98,978.64,125.98z"/>
			<path class="st2" d="M1060.25,121.55c0,0,0-0.01,0-0.01c-0.01,0-0.02,0-0.02,0c0,0,0,0.01,0,0.01
				C1060.23,121.55,1060.24,121.55,1060.25,121.55z"/>
			<path class="st2" d="M1060.12,127.9c2.05,0.05,4.1,0.1,6.15,0.15c0.05-1.82,0.08-3.64,0.17-5.46c0.03-0.66-0.17-0.9-0.85-0.9
				c-1.78-0.01-3.56-0.09-5.34-0.14C1060.13,123.66,1060.04,125.78,1060.12,127.9z"/>
			<path class="st2" d="M989.41,201.36c0,0,0,0.01,0,0.01c0,0,0.01,0,0.01,0c0,0,0-0.01,0-0.01
				C989.41,201.36,989.41,201.36,989.41,201.36z"/>
			<path class="st2" d="M991.48,113.72C991.48,113.73,991.48,113.73,991.48,113.72c0,0.01,0.01,0.01,0.01,0.01L991.48,113.72z"/>
			<path class="st2" d="M1052.53,196.68c-0.14,0-0.28,0-0.42,0.01c0.01,0.14,0.02,0.29,0.04,0.43c-0.04,1.76-0.08,3.52-0.12,5.28
				c-0.1,0.71-0.66,0.43-1.03,0.43c-3.85-0.06-7.7-0.14-11.54-0.22c-0.06,2.07-0.13,4.14-0.19,6.21c3.87,0.1,7.74,0.18,11.61,0.31
				c0.8,0.03,1-0.27,0.99-1c-0.02-1.32,0.14-2.64,0.06-3.95c-0.07-1.09,0.35-1.45,1.35-1.32c1.47,0.03,2.94,0.07,4.41,0.1
				c0.19,0.04,0.38,0.09,0.49-0.13l-0.01,0c0.03-0.08,0.05-0.16,0.08-0.25c0.13-1.77,0.18-3.53,0.12-5.31
				c0.03-0.15,0.06-0.3,0.09-0.46c-0.28,0-0.57,0-0.85-0.01C1055.91,196.77,1054.22,196.72,1052.53,196.68z"/>
			<path class="st2" d="M1058.44,196.81c0.01,0,0.01,0,0.02,0c0-0.01,0-0.01,0-0.02c0,0-0.01,0-0.01,0
				C1058.45,196.8,1058.45,196.81,1058.44,196.81z"/>
			<path class="st2" d="M1041.32,121.08c0.05-2.05,0.1-4.11,0.14-6.16c-12.47-0.3-24.95-0.59-37.42-0.89
				c-0.05,2.05-0.1,4.1-0.15,6.16c-4.18-0.09-8.36-0.19-12.54-0.28c-0.05,2.12-0.11,4.25-0.16,6.37c-1.68-0.04-3.36-0.12-5.04-0.1
				c-0.71,0.01-1.11-0.22-1.22-0.91c0.06-1.84-0.12-3.69,0.25-5.51c2.05,0.13,4.11,0.19,6.16,0.14c0.05-2.05,0.1-4.11,0.14-6.16
				c-2.05-0.03-4.11-0.06-6.16-0.09c-0.1,0-0.16,0.03-0.12,0.15c-0.05,1.99-0.31,3.98-0.02,5.97c-1.78-0.03-3.57,0-5.34-0.1
				c-0.89-0.05-1.12,0.26-1.11,1.1c0.02,1.74-0.05,3.48-0.08,5.23c2.05,0.04,4.1,0.08,6.16,0.13c0.02-0.14,0.04-0.28,0.06-0.42
				c-0.02,0.14-0.04,0.28-0.06,0.42c-0.1,4.19-0.2,8.38-0.3,12.57c-2.05-0.05-4.1-0.09-6.16-0.14c-0.3,12.47-0.59,24.95-0.89,37.42
				c2.05,0.05,4.1,0.1,6.16,0.15c-0.1,4.19-0.2,8.38-0.3,12.58c-2.05-0.06-4.1-0.11-6.16-0.17c-0.05,1.78-0.07,3.56-0.16,5.34
				c-0.04,0.74,0.17,1.03,0.95,1.03c1.74,0,3.48,0.09,5.22,0.14c0,0.01,0,0.01-0.01,0.02c0.01,0,0.01-0.01,0.02-0.01
				c-0.03,1.74-0.02,3.49-0.11,5.23c-0.04,0.78,0.23,1,0.98,1c1.78-0.01,3.56,0.05,5.34,0.08c0.04-2.05,0.08-4.1,0.12-6.16
				c4.17,0.08,8.35,0.15,12.52,0.23c0.06-1.61,0.06-1.61,0,0l0.06,0.06c0,0,0,0,0,0c-0.04,2.05-0.08,4.09-0.11,6.14
				c12.46,0.3,24.92,0.6,37.38,0.89c0.06-2.05,0.11-4.09,0.17-6.14c4.16,0.08,8.32,0.15,12.49,0.23c0.07-2.11,0.14-4.21,0.22-6.32
				c2.11,0.03,4.21,0.05,6.32,0.08c0.1-3.81,0.33-7.62,0.19-11.43c-0.02-0.54,0.19-1.1,0.5-1.17c0,0,0,0,0,0
				c0.17,0.12,0.4,0.19,0.76,0.19c1.69-0.03,3.37,0.04,5.06,0.06c0.02-0.44,0.05-0.88,0.06-1.32c0.27-11.53,0.55-23.06,0.82-34.59
				c0.01-0.51-0.01-1.02-0.01-1.54c1.85,0.03,3.7,0.07,5.55,0.1c0.36,0.01,0.77-0.04,0.76,0.51l0,0
				c-0.29,12.03-0.57,24.06-0.86,36.09c-0.01,0.28,0.03,0.57,0.05,0.85c1.63,0.25,3.29,0.08,4.93,0.23
				c0.97,0.09,1.31-0.17,1.33-1.22c0.16-8.64,0.39-17.28,0.59-25.92c0.08-3.37,0.14-6.74,0.2-10.1c0.03-0.35-0.18-0.3-0.4-0.23
				c-1.83-0.05-3.67-0.09-5.5-0.14c-0.43-0.33-0.28-0.8-0.28-1.22c0.07-3.44,0.13-6.88,0.25-10.31c0.03-0.81-0.19-1.1-1.03-1.09
				c-1.75,0.02-3.5-0.05-5.25-0.08c-0.09,3.78-0.17,7.57-0.27,11.35c-0.01,0.39-0.11,0.77-0.16,1.15h0
				c-1.54-0.03-3.08-0.06-4.62-0.1c-0.27-0.01-0.48-0.01-0.66,0c-0.21-0.35-0.47-0.68-0.78-0.95c0,0,0,0,0,0
				c0.01-0.07,0.03-0.13,0.03-0.21c0.07-3.78,0.15-7.55,0.22-11.33c-2.1-0.07-4.21-0.15-6.31-0.22c0.03-2.11,0.06-4.22,0.09-6.33
				c-4.14-0.09-8.27-0.17-12.41-0.26l0,0C1041.38,121.14,1041.35,121.11,1041.32,121.08 M1060.32,140.49c-0.01,0-0.02,0-0.03,0
				C1060.31,140.5,1060.31,140.49,1060.32,140.49z M1059.79,141.16c0,0.04-0.01,0.08-0.01,0.13
				C1059.78,141.24,1059.78,141.2,1059.79,141.16z M1059.89,140.74c0,0.01-0.01,0.01-0.01,0.02
				C1059.88,140.75,1059.89,140.75,1059.89,140.74z M1059.83,140.91c-0.01,0.02-0.01,0.04-0.02,0.07
				C1059.82,140.95,1059.82,140.93,1059.83,140.91z M1053.71,127.77L1053.71,127.77 M989.72,188.81c0.09-3.8,0.16-7.6,0.28-11.4
				c0.03-0.85-0.23-1.18-1.11-1.18c-0.4,0-0.81-0.01-1.21-0.02c0.4,0.01,0.81,0.02,1.21,0.02c0.87,0,1.13,0.33,1.11,1.18
				C989.87,181.2,989.8,185.01,989.72,188.81c0.38,0.01,0.76,0.02,1.14,0.03C990.47,188.82,990.09,188.82,989.72,188.81
				L989.72,188.81L989.72,188.81z M983.63,176.11c0.3-12.47,0.59-24.95,0.89-37.42h0C984.22,151.16,983.92,163.63,983.63,176.11
				c0.08,0,0.17,0.01,0.25,0.01C983.79,176.11,983.71,176.11,983.63,176.11L983.63,176.11L983.63,176.11z M991.2,126.29
				c-0.01,0.43-0.02,0.86-0.03,1.29C991.17,127.15,991.18,126.72,991.2,126.29L991.2,126.29z M1003.1,152.67
				c0.15-6.19,0.32-12.39,0.42-18.58c0.02-1.08,0.37-1.39,1.42-1.32c1.6,0.11,3.21,0.09,4.82,0.13c-0.11,4.9-0.21,9.8-0.33,14.71
				c-0.28,11.83-0.57,23.65-0.86,35.48c-1.65-0.04-3.3-0.13-4.94-0.1c-0.97,0.01-1.25-0.32-1.22-1.29
				C1002.65,172.02,1002.87,162.34,1003.1,152.67z M1008.44,188.24c0-0.02,0-0.05,0-0.07
				C1008.44,188.19,1008.44,188.21,1008.44,188.24L1008.44,188.24z M1034.86,133.48c1.24,0.03,2.47,0.08,3.71,0.09
				C1037.33,133.56,1036.09,133.51,1034.86,133.48L1034.86,133.48z M1034.85,133.48c-8.36-0.2-16.72-0.4-25.09-0.59
				c0.04-1.72,0.11-3.43,0.12-5.15c0-0.75,0.26-1.03,1.03-1.01c7.69,0.2,15.38,0.39,23.07,0.55c0.77,0.02,1.03,0.29,1,1.05
				C1034.91,130.04,1034.89,131.76,1034.85,133.48z M1041.02,134.88c0.01-0.36-0.04-0.61-0.14-0.81
				C1040.98,134.27,1041.03,134.52,1041.02,134.88c-0.19,6.52-0.33,13.04-0.48,19.56c-0.15,6.18-0.29,12.36-0.44,18.54
				c0.15-6.18,0.29-12.36,0.44-18.54C1040.7,147.92,1040.83,141.4,1041.02,134.88z M1003.9,120.2
				C1003.9,120.2,1003.9,120.2,1003.9,120.2C1003.85,121.95,1003.85,121.95,1003.9,120.2z M989.35,195.1
				c-1.55-0.04-3.09-0.08-4.64-0.12c-0.21-0.18-0.43-0.18-0.65-0.02c-0.21-0.01-0.43-0.02-0.64-0.04l0,0
				c-0.05-0.11-0.09-0.22-0.14-0.32c0.04-1.83,0.09-3.67,0.13-5.5c0.35-0.38,0.81-0.43,1.3-0.41c1.67,0.05,3.33,0.08,5,0.12
				c-0.02,0.84,0,1.67-0.07,2.5C989.54,192.58,989.81,193.87,989.35,195.1z M1026.11,196.06c4.47,0.11,8.95,0.21,13.42,0.32
				c0-0.06,0-0.12,0.01-0.18c0,0.06,0,0.12-0.01,0.18l0,0v0C1035.06,196.27,1030.58,196.16,1026.11,196.06z M1040.83,190.02
				c-0.37-0.01-0.63,0.04-0.82,0.17C1040.2,190.06,1040.46,190.01,1040.83,190.02c3.8,0.12,7.6,0.18,11.4,0.26
				c0.05-1.88,0.11-3.77,0.16-5.65c-0.05,1.88-0.11,3.77-0.15,5.65c0,0,0,0,0,0l0,0C1048.43,190.2,1044.63,190.14,1040.83,190.02z
				 M1059.67,139.92c0,0-0.01,0.01-0.01,0.01C1059.67,139.93,1059.67,139.92,1059.67,139.92z M1059.46,140.2
				c-0.02,0.02-0.05,0.03-0.08,0.04C1059.41,140.23,1059.44,140.22,1059.46,140.2z M1059.13,140.37c-0.13,0.04-0.29,0.05-0.47,0.05
				C1058.84,140.42,1058.99,140.4,1059.13,140.37z M1058.98,177.39c0,0.01,0.01,0.01,0.01,0.02
				C1058.98,177.4,1058.98,177.4,1058.98,177.39z M1059.16,166.88c-0.08,3.3-0.13,6.6-0.25,9.9l0,0
				C1059.02,173.48,1059.08,170.18,1059.16,166.88c0.2-8.32,0.39-16.65,0.59-24.97c0-0.15,0.01-0.29,0.01-0.41
				c0,0.12-0.01,0.26-0.01,0.41C1059.55,150.23,1059.36,158.55,1059.16,166.88z"/>
		</g>
	</g>
	<g>
		<path class="st0" d="M993.63,340.82c2.06,0.01,4.14,0.01,6.17,0.01v0.47l13.05,0c3.69,0,7.39-0.01,11.09,0.01
			c0.03,0,0.05,0,0.08,0c10.64,0,11.88-8.77,12.02-10.54c0.33-4.14,0.7-8.27,1.07-12.41c0.61-6.81,1.25-13.85,1.66-20.86
			c0.43-7.24,0.44-14.51,0.45-21.53l0.01-3.81c0.02-6.88-0.01-14.25-0.4-21.56c-0.23-4.32-3.14-8.92-7.06-11.18l-0.8-0.46
			c-3.43-1.99-7.7-4.47-12.69-5.15c-4.42-0.6-8.53,0.16-12.16,0.83c-0.8,0.15-1.6,0.3-2.4,0.43c-8.8,1.42-17.87,12.13-17.96,21.21
			c-0.02,1.78-0.02,3.57-0.01,5.36c0.01,4.52,0.01,8.79-0.3,13c-0.29,4-0.79,7.97-1.31,12.18c-0.43,3.48-0.88,7.08-1.2,10.7
			c-0.52,5.78-0.9,11.62-1.26,17.26c-0.19,2.92-0.38,5.84-0.58,8.68c0,0.01-0.02,0.15-0.13,0.5c-0.67,2.28-2.25,7.63,1.16,12.21
			C985.54,340.77,991.21,340.8,993.63,340.82z"/>
		<path class="st0" d="M992.82,643.38c0.08-0.07,0.16-0.12,0.23-0.19c3.76-3.35,3.9-8.04,3.94-9.58c0.07-2.49,0.6-5.25,1.17-8.17
			c0.2-1.02,0.4-2.04,0.58-3.06c0.49-2.76,1.02-5.52,1.55-8.28c0.95-4.96,1.93-10.09,2.7-15.25c0.63-4.2,0.99-8.37,1.34-12.4
			c0.2-2.25,0.39-4.5,0.63-6.74c0.26-2.45,0.58-4.89,0.9-7.33c0.26-1.99,0.52-3.98,0.75-5.97c0.92-7.91,1.82-15.82,2.68-23.73
			c0.2-1.81-0.12-3.23-0.3-4.09c-0.02-0.09-0.05-0.19-0.07-0.3l-0.9-5.63c1-0.04,2-0.08,3-0.12c5.84-0.24,11.57-0.58,17.35-1.99
			c9.55-2.34,16.46-8.5,19.47-17.35c2.2-6.47,4.69-13.8,6.63-21.13c1.86-7.03,3.2-14.03,4.53-21.18c0.69-3.73,1.15-7.44,1.58-11.02
			c0.16-1.3,0.32-2.61,0.49-3.91c0.36-2.74,0.73-5.49,1.09-8.23c1.19-8.89,2.42-18.09,3.37-27.22c0.59-5.73-2.85-10.73-4.36-12.61
			c-6.19-7.72-12.39-15.08-18.44-21.86c-2.12-2.38-6.01-5.1-10.48-5.7c0.22-1.08,0.37-2.22,0.44-3.41c0.15-2.61,0.42-5.23,0.7-8.01
			c0.2-2.01,0.41-4.02,0.57-6.03c0.18-2.26,0.28-4.52,0.38-6.71c0.04-0.97,0.09-1.95,0.14-2.95l0.42-8.29l-8.27-0.75
			c-0.49-0.04-0.92-0.09-1.33-0.14c-1.03-0.12-2.1-0.24-3.33-0.24c-10.02,0-20.38,0-30.75,0.08c-4.94,0.03-9.43,2.39-11.99,6.31
			c-0.06,0.08-0.1,0.18-0.15,0.26c-8.83-5.79-18.84-3.55-22.82-2.65c-8.57,1.94-14.87,7.35-17.39,14.74
			c-1.5-0.68-3.08-1.14-4.63-1.25c-7.42-0.53-15.2,2.53-21.31,8.41c-6.4,6.15-9.93,14.25-9.67,22.22l0.01,0.15
			c-0.16-0.01-0.33-0.03-0.49-0.03c-3.1-0.13-7.75,0.66-12.26,5.29c-3.11,3.2-11.21,11.51-8.97,22.79l0,0.36
			c0.03,4.31,0.05,7.47,0.82,10.15l-1.18,4.69c-0.14,0.57-0.26,0.97-0.34,1.28c-0.23,0.83-0.52,1.87-0.57,3.21
			c-0.13,3.92-0.26,7.83-0.39,11.75c-0.44,12.95-0.89,26.33-1.14,39.53c-0.1,5,0.86,9.94,2.7,13.9
			c7.74,16.73,16.35,25.09,30.82,28.51c-2.17,1.41-4.09,3.44-4.95,6.21c-1.12,3.6-1.54,7.22-1.92,10.41
			c-0.08,0.67-0.16,1.34-0.24,2.01c-0.26,2.04-0.46,4.08-0.66,6.13c-0.32,3.2-0.61,6.22-1.13,9.11c-1.36,7.6-2.92,15.34-4.43,22.83
			c-0.55,2.7-1.09,5.4-1.63,8.1c-0.37,1.84-0.76,3.68-1.15,5.51c-0.27,1.24-0.53,2.49-0.79,3.73c-0.29,1.42-0.58,2.84-0.86,4.25
			c-0.57,2.85-1.11,5.54-1.73,8.24l-0.35,1.56c-0.49,2.22-0.95,4.32-1.65,5.93c-1.96,4.54-1.88,9.72,0.2,13.85
			c0.36,0.71,0.78,1.37,1.24,1.99H856.5l0.25-3.58c1.33-19.09-3.85-32.85-15.77-41.61c16.96-11.54,27.21-29.64,31.79-55.72
			l1.78-10.14h-0.09l0.69-4.17c4.29-25.99,0.65-46.03-10.84-59.57c-11.36-13.39-30.16-20.18-55.87-20.18h-92.59h-10.17H533.58
			l-9.04,62.86h56.04L577,532.33h0l-18.86,111.12h0l-14.2,83.66h65.23l14.2-83.66h0l18.12-106.73h0l4.32-25.44h49.48l-3.48,21.05h0
			l-18.36,111.12h0l-13.82,83.66h69.72l13.1-79.27h0l3.54-21.41h24.31c17.38,0,19.12,6.24,19.47,13.19l0.22,4.45l-15.86,87.48
			L761.45,810h65.14l25.49-140.75l-8.66,55.91h176.21l11.23-81.78H992.82z M765.96,504.84h28.16c4.74,0,10.95,0.66,13.63,3.83
			c2.75,3.24,2.37,9.69,1.57,14.53l-2.24,13.52h0l-1.65,9.96c-2.27,13.74-5.26,14.55-27.73,14.55h-21.85l5.17-28.89h0L765.96,504.84
			z"/>
		<path class="st0" d="M1191.85,584.32c13.82-8.88,23.37-22.36,29-40.82l3.4-11.16h-0.54l0.5-2.68c0.09-0.48,0.17-0.97,0.26-1.46
			l0.02,0c0.01-0.03,0.01-0.06,0.01-0.09l0.28-1.67h0l0-0.02l-0.03-0.01c3.85-25.19,0.1-44.67-11.18-57.91
			c-11.36-13.33-30.13-20.09-55.79-20.09h-85.61l-14.59,88.3h0l-17.63,106.73h0l-13.82,83.66h89.54c49.89,0,79.87-24.7,89.11-73.4
			l1.11-5.87h0.05l0.14-1l0.64-3.38h-0.17l0.43-3.05C1210.59,614.68,1205.64,596.17,1191.85,584.32z M1132.11,504.3h18.21
			c4.74,0,10.95,0.66,13.63,3.83c2.75,3.24,2.37,9.69,1.57,14.54l-2.08,12.57l-0.99,3.16c-3.86,12.38-11.87,17.66-26.76,17.66
			h-12.14l3.92-23.73h0L1132.11,504.3z M1145.44,650.59c-2.58,14.65-9.67,20.63-24.48,20.63h-16.43l3.86-23.38h0l6.01-36.42h16.06
			c7.95,0,13.3,1.55,15.9,4.62c3.31,3.9,2.9,11.37,1.98,16.95l-2.45,14.84h0.01L1145.44,650.59z"/>
		<polygon class="st0" points="1386.44,505.37 1395.85,448.42 1260.38,448.42 1245.79,536.72 1245.79,536.72 1227.43,647.83 
			1227.43,647.83 1214.33,727.11 1350.88,727.11 1360.29,670.15 1293.46,670.15 1297.87,643.45 1297.87,643.45 1303.08,611.95 
			1366.15,611.95 1375.48,555.53 1312.4,555.53 1316.23,532.33 1316.23,532.33 1320.68,505.37 		"/>
	</g>
	<g>
		<path class="st2" d="M887.85,435.68c2.41,2.63,4,4.89,6.08,6.55c6.15,4.9,12.48,9.58,18.76,14.32c2.22,1.68,4.81,3,6.69,4.99
			c6.92,7.33,23.51,3.14,26.71-5.83c0.47-1.32,1.15-2.56,1.7-3.85c0.86-2,2.09-2.9,4.48-2.44c5.43,1.04,15.35-3.76,16.67-7.93
			c0.65-2.07,1.11-4.24,2.08-6.15c0.42-0.82,2.41-1.8,2.83-1.5c4.09,2.87,8.82,2.49,13.37,3.09c0.91,0.12,1.75,0.72,3.71,1.57
			c-19.1,15.5-26.48,35.94-28.65,58.79c-0.06,0.67,0.51,1.4,1.34,1.84c4.99-13.98,9.81-27.42,19.84-37.87
			c9.76-10.17,20.2-19.7,30.92-30.07c-1.53-0.22-2.99-0.66-4.41-0.59c-11.02,0.56-21.5-1.58-31.3-6.54
			c-5.57-2.82-10.35-11.87-4.39-18.31c2.09-2.26,5.52-3.51,8.56-4.63c11.46-4.25,22.97-8.42,34.57-12.27
			c3.6-1.2,7.57-1.72,11.37-1.72c1.96,0,4.42,1.4,5.79,2.94c6.24,7,12.28,14.19,18.14,21.51c1.38,1.72,2.72,4.3,2.51,6.32
			c-1.22,11.77-2.9,23.49-4.43,35.22c-0.63,4.83-1.11,9.69-2,14.48c-1.28,6.89-2.6,13.78-4.39,20.55
			c-1.83,6.94-4.14,13.76-6.45,20.56c-2.17,6.39-7.11,10.21-13.34,11.73c-5.06,1.24-10.41,1.54-15.66,1.75
			c-16.36,0.68-32.74,1.1-49.11,1.67c-11.47,0.4-22.97,1.62-34.4,1.14c-20.62-0.86-29.26-6.74-37.88-25.35
			c-1.4-3.03-1.96-6.74-1.9-10.11c0.32-17.06,0.98-34.11,1.53-51.16C887.21,437.86,887.42,437.38,887.85,435.68z"/>
		<path class="st3" d="M998.67,537.91c0.14,0.85,0.38,1.49,0.31,2.09c-0.86,7.89-1.75,15.78-2.67,23.67
			c-0.52,4.46-1.18,8.9-1.66,13.37c-0.68,6.26-1,12.57-1.93,18.8c-1.17,7.8-2.83,15.53-4.21,23.3c-0.74,4.15-1.76,8.32-1.88,12.51
			c-0.09,3.38-1.25,4.27-4.35,3.99c-2.7-0.24-5.44-0.2-8.15-0.1c-13.81,0.51-27.72,0.22-41.37,1.99c-6.89,0.89-13.82,0.99-20.9,0.49
			c-3.94-0.28-7.77,1.29-11.61,0.39c-3.72-0.87-4.9-5.37-3.27-9.16c1.22-2.83,1.79-5.96,2.48-8.99c0.96-4.2,1.75-8.44,2.63-12.66
			c0.64-3.11,1.34-6.2,1.96-9.31c2.06-10.36,4.24-20.71,6.09-31.11c0.92-5.17,1.2-10.45,1.86-15.67c0.47-3.68,0.75-7.45,1.84-10.95
			c0.39-1.26,2.83-2.51,4.43-2.65c4.5-0.4,9.05-0.25,13.58-0.25c20.97,0.01,41.94,0.04,62.91,0.08
			C996.03,537.71,997.29,537.84,998.67,537.91z"/>
		<path class="st2" d="M1006.71,330.45c-4.92,0-9.84,0.02-14.76-0.01c-5.01-0.03-5.81-1.1-4.43-5.78c0.22-0.73,0.4-1.5,0.45-2.26
			c0.62-8.62,1.07-17.25,1.84-25.86c0.69-7.69,1.96-15.33,2.53-23.02c0.46-6.28,0.27-12.6,0.34-18.9
			c0.05-4.83,5.88-11.98,10.7-12.76c3.99-0.65,8.13-1.75,12.01-1.22c3.6,0.49,7.08,2.65,10.34,4.54c1.32,0.76,2.67,2.69,2.75,4.16
			c0.37,7.01,0.41,14.04,0.39,21.06c-0.03,8.29,0.05,16.59-0.44,24.85c-0.66,11.05-1.85,22.06-2.72,33.1
			c-0.19,2.39-1.62,2.58-3.44,2.58c-5.18-0.02-10.35-0.01-15.53-0.01C1006.71,330.77,1006.71,330.61,1006.71,330.45z"/>
		<path class="st2" d="M910.17,389.91c-0.35-11.26,10.93-22.51,21.74-21.73c1.76,0.13,4.13,1.75,4.93,3.34
			c2.38,4.73,4,9.83,6.12,14.7c3.65,8.36,7.7,16.55,11.13,24.99c2.91,7.14,5.38,14.48,7.58,21.87c0.42,1.4-0.85,4.02-2.15,5.1
			c-7.62,6.3-13.56,5.11-19.6-2.74c-5.09-6.61-11.41-12.31-16.16-19.13c-5.02-7.22-8.88-15.25-13.11-23.01
			C910.08,392.24,910.28,390.76,910.17,389.91z"/>
		<path class="st2" d="M962.81,411.53c-1.48-2-2.58-3.14-3.28-4.49c-4.23-8.17-8.68-16.26-12.44-24.65
			c-2.36-5.28-3.34-11.16-2.24-16.97c1.19-6.25,6.27-9.71,11.6-10.92c5.82-1.32,12.4-2.01,17.72,2.59c1.22,1.06,2.43,2.23,3.32,3.57
			c5.09,7.64,8.53,16.09,11.78,24.62c1.03,2.7-1.45,6.21-5.11,7.4c-4.11,1.34-8.28,2.53-12.34,4.03c-4.95,1.83-7.39,5.79-8.41,10.77
			C963.21,408.45,963.11,409.44,962.81,411.53z"/>
		<path class="st2" d="M888.46,417.39c-1.57-6.08,2-11.13,6.53-15.78c3.64-3.73,7.74-3.6,11.07,0.52
			c5.71,7.08,11.31,14.25,16.9,21.42c4.18,5.36,8.51,10.64,12.33,16.25c1.88,2.76,3.27,6.12,3.87,9.39c0.48,2.6-1.93,4.16-4.53,4.53
			c-5.99,0.86-11.51-0.48-16.36-4.07c-8.96-6.63-17.9-13.29-26.72-20.09C888.37,427.14,888.53,426.94,888.46,417.39z"/>
		<path class="st2" d="M1024.13,351.05c-0.17,3.28-0.25,6.35-0.5,9.41c-0.38,4.75-1.01,9.48-1.28,14.23
			c-0.32,5.54-3.07,8.33-8.47,8.88c-3.28,0.34-6.57,1.13-9.72,2.15c-4.67,1.52-7.51,0.73-9.47-3.58
			c-3.51-7.73-6.86-15.53-10.2-23.34c-1.78-4.15,0.65-7.99,5.07-8.02c10.23-0.07,20.46-0.08,30.69-0.08
			C1021.38,350.71,1022.51,350.9,1024.13,351.05z"/>
	</g>
	<g>
		<path class="st4" d="M767.78,615.04h-31.64l-3.54,21.41h63.27C795.15,621.8,786.11,615.04,767.78,615.04z"/>
		<path class="st4" d="M861.76,538.23c-5.76,32.79-20.2,49.06-42.73,57.51c19.86,5.66,28.19,18.02,26.61,40.71h201.26l16.23-98.22
			H861.76z"/>
		<path class="st4" d="M775.22,567.13c21.45,0,32.71-0.34,36.25-21.78l1.18-7.11h-64.42l-5.17,28.89H775.22z"/>
		<path class="st4" d="M1133.19,561.96c18.61,0,30-7.69,35.01-23.73h-53.41l-3.92,23.73H1133.19z"/>
		<path class="st4" d="M1171.54,521.34c3.19-19.3-4.42-28.41-23.72-28.41h-25.54l-5.35,32.41h53.96L1171.54,521.34z"/>
		<path class="st4" d="M1171.38,580.73c19.88,8.3,28.91,24.61,24.53,55.72h39.2l16.23-98.22h-41.26
			C1203.07,561.22,1190.19,574.09,1171.38,580.73z"/>
		<path class="st4" d="M1127.98,600.04h-23.39l-6.02,36.42h55.03l0.79-4.79C1157.93,610.22,1149.42,600.04,1127.98,600.04z"/>
		<path class="st4" d="M1091.85,677.12h26.61c19.08,0,29.67-8.92,32.99-27.77h-55.01L1091.85,677.12z"/>
		<path class="st4" d="M815.35,521.87c3.19-19.3-4.42-28.41-23.72-28.41h-35.39l-5.71,31.88h64.25L815.35,521.87z"/>
		<polygon class="st4" points="629.5,538.23 612.83,636.45 680.41,636.45 696.63,538.23 		"/>
		<polygon class="st3" points="629.5,538.23 581.8,538.23 565.13,636.45 612.83,636.45 		"/>
		<polygon class="st2" points="636,499.9 696.81,499.9 703.37,454.32 538.56,454.32 532.01,499.9 588.31,499.9 583.99,525.34 
			631.69,525.34 		"/>
		<polygon class="st5" points="551.67,715.72 599.37,715.72 610.64,649.35 562.94,649.35 		"/>
		<polygon class="st5" points="780.12,730.35 769.1,798.62 816.87,798.62 843.9,649.35 794.8,649.35 		"/>
		<polygon class="st5" points="667.31,715.72 719.51,715.72 730.48,649.35 678.27,649.35 		"/>
		<path class="st3" d="M819.03,595.75c22.52-8.46,36.97-24.73,42.73-57.51h-49.11l-1.18,7.11c-3.54,21.44-14.8,21.78-36.25,21.78
			h-32.17l5.17-28.89h-51.58l-16.23,98.22h52.2l3.54-21.41h31.64c18.33,0,27.37,6.76,28.1,21.41h49.75
			C847.21,613.77,838.89,601.41,819.03,595.75z"/>
		<path class="st2" d="M756.23,493.46h35.39c19.3,0,26.91,9.12,23.72,28.41l-0.57,3.47h49.13l0.22-1.32
			c7.71-46.64-11.55-69.7-58.19-69.7H710.5l-11.73,71.02h51.76L756.23,493.46z"/>
		<path class="st5" d="M1118.46,677.12h-26.61l4.59-27.77h-51.67l-10.97,66.37h79.35c45.52,0,72.19-21.97,80.62-66.37h-42.33
			C1148.12,668.19,1137.54,677.12,1118.46,677.12z"/>
		<path d="M1213.74,522.29c-0.06,0.35-0.12,0.68-0.18,1.02c-0.04,0.24-0.07,0.46-0.1,0.7L1213.74,522.29z"/>
		<path class="st2" d="M1122.28,492.92h25.54c19.3,0,26.91,9.12,23.72,28.41l-0.66,4h42.33c0.12-0.66,0.24-1.35,0.36-2.02
			c7.39-46.17-11.88-69-58.29-69h-78.28l-11.73,71.02h51.67L1122.28,492.92z"/>
		<path class="st3" d="M1171.38,580.73c18.8-6.64,31.68-19.51,38.7-42.5h-41.88c-5,16.04-16.4,23.73-35.01,23.73h-22.32l3.92-23.73
			h-51.67l-16.23,98.22h51.67l6.02-36.42h23.39c21.45,0,29.95,10.18,26.41,31.63l-0.79,4.79h42.32
			C1200.3,605.33,1191.26,589.03,1171.38,580.73z"/>
		<polygon class="st3" points="1235.12,636.45 1287.32,636.45 1293.25,600.57 1356.32,600.57 1362.79,561.43 1299.71,561.43 
			1303.55,538.23 1251.34,538.23 		"/>
		<polygon class="st5" points="1222.02,715.72 1341.05,715.72 1347.61,676.05 1280.78,676.05 1285.19,649.35 1232.99,649.35 		"/>
		<polygon class="st2" points="1376.61,493.99 1383.17,454.32 1265.21,454.32 1253.47,525.34 1305.68,525.34 1310.85,493.99 		"/>
	</g>
	<polygon class="st5" points="1010.36,714.78 851.76,714.78 861.76,650.29 1019.22,650.29 	"/>
</g>
</svg>
