<?xml version="1.0" encoding="utf-8"?>
<!-- Generator: Adobe Illustrator 24.1.2, SVG Export Plug-In . SVG Version: 6.00 Build 0)  -->
<svg version="1.1" id="Layer_1" xmlns="http://www.w3.org/2000/svg" xmlns:xlink="http://www.w3.org/1999/xlink" x="0px" y="0px"
	 viewBox="0 0 1000 1000" style="enable-background:new 0 0 1000 1000;" xml:space="preserve">
<style type="text/css">
	.st0{fill:#30303A;}
	.st1{fill:#FFFFFF;}
	.st2{fill:#ECD317;}
	.st3{fill:#CAB209;}
	.st4{fill:none;}
	.st5{fill:#AD960E;}
	.st6{fill:#51515E;}
	.st7{fill:#43434F;}
</style>
<g>
	<path class="st7" d="M115.74,673.5l27.64-297.64H95.99l4.45-47.88h147.59l-4.45,47.88H196.2L168.56,673.5H115.74z"/>
	<path class="st7" d="M411.45,556.02L400.54,673.5h-52.82l10.82-116.49c1.42-15.3-4.85-22.21-20.15-22.21H314.7l-12.88,138.7h-52.82
		l32.09-345.52h86.87c42.94,0,62.2,21.23,58.21,64.17l-6.05,65.16c-2.84,30.6-15.08,45.41-35.06,53.31
		C406.23,516.54,413.88,529.86,411.45,556.02z M355.22,374.87h-25.67l-10.59,114.02h23.69c14.81,0,22.36-6.91,23.69-21.23
		l6.78-73.05C374.37,381.29,368.55,374.87,355.22,374.87z"/>
	<path class="st7" d="M514.56,673.5h-50.84l25.62-275.93h-32.58l3.58-38.5c21.9-1.97,32.37-8.39,46.22-24.68l6.66-7.9h33.57
		L514.56,673.5z"/>
	<path class="st7" d="M724.36,545.66l-5.91,63.68c-3.99,42.94-27.18,64.17-70.13,64.17h-86.38l32.09-345.52h85.39
		c42.94,0,62.2,21.23,58.21,64.17l-4.72,50.84c-2.84,30.6-14.63,45.91-34.52,52.82C718.48,502.71,726.98,517.52,724.36,545.66z
		 M667.22,374.38h-25.17l-9.35,100.7h23.2c14.81,0,22.36-6.91,23.74-21.72l5.5-59.23C686.36,380.79,680.54,374.38,667.22,374.38z
		 M618.57,627.1h26.16c13.33,0,20.34-6.42,21.58-19.74l6.1-65.65c1.38-14.81-4.89-21.72-19.7-21.72h-24.19L618.57,627.1z"/>
	<path class="st7" d="M904.01,327.98l-4.45,47.88H834.9l-9.08,97.73h62.19l-4.45,47.88h-62.19l-9.67,104.15h65.65l-4.45,47.88
		H754.44l32.09-345.52H904.01z"/>
</g>
</svg>
