<svg xmlns="http://www.w3.org/2000/svg" xmlns:xlink="http://www.w3.org/1999/xlink" id="Layer_1" x="0" y="0" enable-background="new 0 0 704 591.9" version="1.1" viewBox="0 0 704 591.9" xml:space="preserve"><style type="text/css">.st0{fill:none;stroke:#010000;stroke-width:6.9053;stroke-miterlimit:10}.st1{display:none}.st2,.st3{display:inline}.st3,.st4{fill:#fff}.st5{display:inline;fill:none;stroke:#fff;stroke-width:8;stroke-miterlimit:10}.st6{fill:#ecd317}.st7{fill:#010000;stroke:#010000;stroke-width:11.3604;stroke-miterlimit:10}.st8{fill:#cab209}.st9{fill:none}.st10{fill:#ad960e}</style><path d="M429.6,45.5c-1.2,0-2.4-0.1-3.6-0.1c-0.3-0.2-0.2-0.5-0.2-0.8c0-2.3,0.1-4.5,0.2-6.8c0-0.5-0.1-0.7-0.7-0.7	c-1.2,0-2.3,0-3.5-0.1c0,0,0,0,0,0c0,0,0,0,0,0c0-1.2,0.1-2.4,0.1-3.6c0-0.4-0.1-0.6-0.6-0.6c-1.2,0-2.3-0.1-3.5-0.1c0,0,0,0,0,0	l0,0c0-1.2,0-2.3,0.1-3.5c0-0.5-0.1-0.6-0.6-0.6c-1,0-2-0.1-3-0.1c-0.4,0-0.6-0.1-0.6-0.6c0-0.9,0-1.8,0.1-2.7	c0.1-0.7-0.1-0.9-0.8-0.9c-2.5,0-5-0.1-7.4-0.2c0,0,0,0,0,0c0,0,0,0,0,0c0.2-1.1,0.1-2.2,0.2-3.2c0.1-0.7-0.1-0.9-0.8-0.9	c-7.7-0.2-15.3-0.3-23-0.5c-0.1,0-0.2,0-0.4,0c-0.4,0-0.5,0.1-0.5,0.5c0,0.9,0,1.9,0,2.8c0,0.7-0.3,0.8-1,0.8	c-2.2-0.1-4.4-0.1-6.6-0.2c-0.5,0-0.7,0.1-0.7,0.7c0,1.2,0,2.3-0.1,3.5c0,0,0,0,0,0c0,0,0,0,0,0c-1.4,0-2.7,0-4.1-0.1	c-0.1,0-0.1,0-0.1,0.1c0,1.3-0.2,2.6,0,3.9c-1.2,0-2.3,0-3.5-0.1c-0.6,0-0.7,0.2-0.7,0.7c0,1.1,0,2.3-0.1,3.4l0,0c0,0,0,0,0,0	c-1.2,0-2.3,0-3.5-0.1c-0.6,0-0.7,0.2-0.7,0.7c0,2.3-0.1,4.5-0.1,6.8c0,0.5-0.1,0.8-0.7,0.8c-1,0-2,0-3-0.1c-0.2,0-0.4-0.2-0.4,0.1	c0,0.5,0,1.1-0.1,1.6c-0.2,7.4-0.4,14.8-0.5,22.1c0,0.4-0.2,0.8,0.5,0.8c1.2,0,2.4,0,3.6,0c0,0,0,0,0,0l0,0c-0.1,2.5-0.1,5-0.2,7.6	c0,0.5,0.1,0.7,0.7,0.7c1.2,0,2.3,0,3.5,0.1c0,0,0,0,0,0l0,0c0,1.2,0,2.3-0.1,3.5c0,0.5,0.1,0.7,0.6,0.7c1.1,0,2.3,0.1,3.4,0.1	c0,0,0,0,0,0c0,0,0,0,0,0l0,0c0.1,0,0.1,0,0.2-0.1l0,0c-0.1,0-0.1,0-0.2,0.1c0,1.1,0,2.3-0.1,3.4c0,0.5,0.2,0.7,0.6,0.7	c1.2,0,2.3,0,3.5,0.1c0,0,0,0,0,0l0,0c0,1.2,0,2.3-0.1,3.5c0,0.5,0.1,0.7,0.7,0.7c2.2,0,4.5,0.1,6.7,0.2c0.3,0,0.6-0.1,0.9,0.2	c0,1.2-0.1,2.4-0.1,3.6c-0.1,0.1-0.1,0.3,0.1,0.3c0.3,0,0.5,0,0.8,0c7.6,0.2,15.1,0.4,22.7,0.5c0.2,0,0.3,0,0.5,0	c0.4,0.1,0.5-0.1,0.5-0.5c0-1.2,0-2.4,0-3.6l0,0c0,0,0,0,0,0c2.5,0.1,5.1,0.1,7.6,0.2c0.5,0,0.7-0.2,0.7-0.7c0-0.9,0.1-1.7,0-2.6	c0-0.7,0.2-1,0.9-0.9c1,0,1.9,0,2.9,0.1c0.1,0,0.2,0.1,0.3-0.1h0c0-0.1,0-0.1,0-0.2c0.1-1.2,0.1-2.3,0.1-3.5c0-0.1,0-0.2,0.1-0.3	c0,0,0,0,0,0c0,0,0,0,0,0c1.2,0,2.4,0,3.5,0.1c0.4,0,0.6-0.1,0.6-0.5c0-1,0.1-2,0.1-3c0-0.4,0.1-0.6,0.6-0.6c0.8,0,1.6,0.1,2.5,0.1	c1.2,0,1.1,0.3,1.1-1c0.1-2.4,0.1-4.8,0.2-7.2h0c0,0,0,0,0,0c1.1,0.2,2.2,0.1,3.2,0.1c0.6,0.1,0.9-0.1,0.9-0.8	c0.1-5.7,0.3-11.4,0.4-17c0.1-2.2,0.1-4.4,0.1-6.6C429.9,45.5,429.7,45.5,429.6,45.5z" class="st0"/><g class="st1"><path d="M-1225-686.8c0-8.9,0-17.8,0-26.7h0V-736h-23.9c-4-0.1-7.5,0-7.5,0c-2.5,7.3-8.2,17.6-15.9,18.6 c-6.4,0.9-12.9,0.9-19.4,1c-0.5,0-1,0.1-1.4,0.1h-3.2v3.1c-0.1,0.4-0.1,0.9-0.1,1.5c0,1.5,0.1,3,0.1,4.5v5.7c0,2.6,0,5.2,0,7.9 c0,1,0,1.9,0,2.6v4.1h28.6v107.9v0h42.8L-1225-686.8L-1225-686.8z" class="st2"/><path d="M-1454.7-736h-128.2v40.2h42.8c0.1,0,0.1,0,0.2,0c0,39.3,0,77.8,0,116.4c14.6,0,28.5,0,43.1,0 c0-39,0-77.6,0-116.5c0,0,0.1,0,0.1,0h42V-736z" class="st2"/><path d="M-1305.2-578.8l-0.7-1.4c0,0,0,0,0,0c-0.8-1.5-1.5-2.9-2.3-4.4l-26.4-51.1c0.4-0.6,0.5-0.9,0.7-1 c1.1-0.7,2.3-1.3,3.4-2c10.5-6.4,17.7-15.6,19.3-27.8c1.3-9.5,1.5-19.3,0.6-28.9c-1.8-19.7-13.5-31.8-32.2-36.8 c-7-1.9-14.5-2.5-21.7-2.6c-8.9-0.1-17.8-0.2-26.7-0.2v0h-43.6v0.8c0,51.8,0,103.1,0,154.9c0,0.1,0,0.1,0,0.2 c0.3,0,0.6-0.1,0.9-0.2h42.8v-51.9c2,0,9.5,0.1,12.5,0.1l20.7,40c1.3,2.6,2.7,5.3,4,8c0.3,0.6,0.6,1,0.9,1.5l1.5,2.9H-1305.2z M-1390.8-700.8c9.3,0.2,18.2-1.2,27,1.1c5.8,1.5,9.2,6,9.5,12c0.2,3.6,0.2,7.3,0,11c-0.3,6.5-4.4,11.7-10.8,12.4 c-8.4,1-16.8,1-25.7,1.5C-1390.8-676.1-1390.8-688.1-1390.8-700.8z" class="st2"/><path d="M-1069.6-633.2c-1.1-6.7-4.1-12.5-9.7-16.3c-4.8-3.3-10-5.7-15.2-8.6c2.7-1.2,5.7-2.5,8.7-4 c8.8-4.4,14.4-11.3,15.3-21.3c0.5-5,0.7-10,0.4-15c-1.1-14.7-8.1-25.8-21.9-31.3c-6.7-2.7-14.1-4.5-21.3-4.7 c-13.4-0.4-26.8-0.5-40.2-0.6v-0.1h-39.4v48.3h0c0,34,0,68,0,101.9c0,1.8,0.3,3.5,0.5,5.4c1.6,0.2,2.8,0.4,3.9,0.4 c25.2,0,50.3,0.3,75.5-0.3c7.5-0.2,15.2-2.2,22.3-4.7c10.2-3.7,17.1-11.4,20.1-22C-1068.2-614.9-1068.1-624-1069.6-633.2z M-1150.3-700.6c1.2-0.2,2.2-0.6,3.1-0.6c7.6,0,15.3-0.2,22.9,0.1c8.2,0.3,12,4.6,12.1,12.6c0.1,12.5-3.6,16.4-16.1,16.5 c-5.6,0-11.3,0-16.9,0c-1.6,0-3.2-0.2-5.1-0.4C-1150.3-682.1-1150.3-691.3-1150.3-700.6z M-1128.6-611.5 c-6.1,0.5-12.3,0.1-18.5,0.2c-2.9,0-3.7-1.5-3.7-4.1c0.1-4,0-8,0-12c0-4,0-8,0-12c0-2.1,0.7-3.6,3.1-3.6c8.5,0.2,17,0,25.4,0.9 c7.1,0.8,9.9,4.9,10.2,11.9C-1111.3-616.6-1114.9-612.6-1128.6-611.5z" class="st2"/><path d="M-1000.5-697.9h66.4v-37h-111.4v0.6c0,12.2,0,24.3,0,36.4c0,7.4,0,14.8,0,22.2c0,11.6,0,23.2,0,34.9 c0,8.4,0,16.8,0,25.2c0,12.2,0,24.3,0,36.5c37.1,0,73.6,0,110.6,0h0.8v-36.5h-68.5c0-8.5,0-16.5,0-25.2c17,0,33.7,0,50.7,0h0.3 v-34.9h-51c0-7.6,0-14.6,0-22.1C-1001.9-697.8-1001.2-697.9-1000.5-697.9z" class="st2"/></g><g class="st1"><g class="st2"><path d="M-2339.6-522v-213.2h-31.5v-46.3h145.1v46.3h-61.7v250.1L-2339.6-522z"/><path d="M-2117.1-611.4v126.2L-2169-522v-89c0-6.3-3-9.3-9.3-9.3h-13v98.3l-51.9,36.9v-296.4h77.5c32.3,0,48.2,15.9,48.2,48.2 v50.1c0,22.2-8.2,33.4-22.2,38.6C-2123.8-640.3-2117.1-630.3-2117.1-611.4z M-2178.7-736.3h-12.6v71.9h12.6c6.3,0,9.3-3,9.3-9.3 V-727C-2169.4-733.3-2172.4-736.3-2178.7-736.3z"/><path d="M-2031.8-522h-50.8v-200.2h-24.5v-36c16.3-1.5,23.7-6.3,33-18.5l4.4-5.9h37.8V-522z"/><path d="M-1887.2-622.9v52.7c0,26.6-21.6,48.2-48.2,48.2h-77.1v-259.6h76.4c26.6,0,48.2,21.6,48.2,48.2v38.6 c0,22.2-7.8,33.4-21.5,38.6C-1893.9-651.8-1887.2-641.8-1887.2-622.9z M-1948.8-737.1h-12.2v61.6h12.2c6.3,0,9.3-3,9.3-9.3v-43 C-1939.5-734.1-1942.5-737.1-1948.8-737.1z M-1961-566.5h13c6.3,0,9.3-3,9.3-9.3v-47.1c0-6.3-3-9.3-9.3-9.3h-13V-566.5z"/><path d="M-1774.2-781.5v46.3h-44.5v58.2h42.6v46.3h-42.6v62.3h45.2v46.3h-97.1v-259.6H-1774.2z"/></g><rect width="68" height="8" x="-2091" y="-548.1" class="st3"/><rect width="68" height="8" x="-2091" y="-576.1" class="st3"/></g><g class="st1"><path d="M-793.9,388.6v2.6c0,24.1-11.9,35.9-35.9,35.9h-40.9V293.7h40.4c24.1,0,35.9,11.9,35.9,35.9v-1.5 c0,17.1-5.8,26-16.9,30.1C-799.9,362.6-793.9,371.5-793.9,388.6z M-830.9,313.6h-18v34.9h16.3c11.1,0,16.3-5.3,16.3-16.3v-4 C-816.2,318.3-820.9,313.6-830.9,313.6z M-848.9,407.3h18.5c10,0,14.7-4.7,14.7-14.7v-8.1c0-11.1-5.3-16.3-16.3-16.3h-16.9V407.3z" class="st2"/><path d="M-719.2,293.7v20.5H-758v34.1h37.3v20.2H-758v38.3h39.3v20.5h-61.4V293.7H-719.2z" class="st2"/><polygon points="-719.1 465.1 -1109.1 463.6 -1109.1 443.2 -719.1 444.8" class="st2"/><rect width="390.4" height="21.1" x="-1109.1" y="249.7" class="st2"/><polygon points="-898.4 262.2 -898.4 253.7 -906.9 253.7 -916.8 253.7 -920.5 253.7 -920.5 257.4 -960.3 297.2 -944.1 313.5 -920.5 289.9 -920.5 447.2 -898.4 447.2 -898.4 267.8" class="st2"/><rect width="13.8" height="40.5" x="-966.8" y="435.7" class="st3"/><rect width="13.8" height="40.5" x="-884.6" y="435.7" class="st3"/><g class="st2"><path d="M-973.4,468.6v-75.8c0-8.9-3-11.9-11.9-11.9h-11.3v51.3h-32.1V288.7h46.2c26.8,0,40.9,14.2,40.9,40.9v5.9 c0,13.8-3.6,23.5-11.2,29.8c7.8,5.2,11.5,13.9,11.5,26.6v76.6H-973.4z M-984.9,351.3c8.2,0,11.3-3.1,11.3-11.3v-11.4 c0-7.2-2.4-9.7-9.7-9.7h-13.2v32.4H-984.9z"/><path d="M-982.5,293.7c24.1,0,35.9,11.9,35.9,35.9v5.9c0,17.4-6.1,26-17.1,30.4c12.2,3.3,17.4,11.1,17.4,26v71.6 h-22.1v-70.8c0-11.6-5.3-16.9-16.9-16.9h-16.3v51.3h-22.1V293.7H-982.5 M-1001.5,356.3h16.6c11.1,0,16.3-5.3,16.3-16.3v-11.4 c0-10-4.7-14.7-14.7-14.7h-18.2V356.3 M-982.5,283.7h-41.2h-10v10v133.5v10h10h22.1h10v-10v-41.3h6.3c3.4,0,5.2,0.6,5.7,1.1 c0.5,0.5,1.1,2.3,1.1,5.7v70.8v10h10h22.1h10v-10v-71.6c0-11.8-3-20.8-9.1-27c5.9-7.1,8.8-16.9,8.8-29.4v-5.9 C-936.5,300-952.8,283.7-982.5,283.7L-982.5,283.7z M-991.5,323.9h8.2c2.7,0,3.8,0.5,4,0.7c0.1,0.2,0.7,1.3,0.7,4V340 c0,3.1-0.6,4.7-1.1,5.2c-0.5,0.5-2.2,1.1-5.2,1.1h-6.6V323.9L-991.5,323.9z" class="st4"/></g><path d="M-1080.1,427.2v-113h-29v-20.5h90.3v20.5h-39.1v113H-1080.1z" class="st2"/><rect width="13.8" height="49.5" x="-898.4" y="233.2" class="st3"/><polygon points="-943.5 280.5 -914.1 249.2 -928.8 249.2 -956.8 276.2" class="st3"/><line x1="-929.4" x2="-893.1" y1="429.7" y2="393.4" class="st5"/><line x1="-929.4" x2="-893.1" y1="403.7" y2="367.4" class="st5"/></g><g class="st1"><path d="M-1065.1,98.3V20.3h-15.7V4.5h271.1v15.9h-237.9v77.9H-1065.1z" class="st2"/><path d="M-974.8,80.1v39h-17.5V80.4c0-5.1-2.3-7.4-7.4-7.4h-7.9v25.2h-17.5v-73h28.8c14.2,0,21.3,7,21.3,21.3v0.8 c0,10.1-3.6,15.1-10,17.7C-977.7,67-974.8,71.4-974.8,80.1z M-999,40.8h-8.5v17h7.9c4.9,0,7.2-2.3,7.2-7v-3.5 C-992.5,42.9-994.6,40.8-999,40.8z" class="st2"/><path d="M-858.8,76.6V77c0,14.2-7,21.3-21.3,21.3h-28.6v-73h28.3c14.2,0,21.3,7,21.3,21.3v-3.9 c0,10.1-3.4,15.2-9.8,17.5C-862.1,62.4-858.8,67.3-858.8,76.6z M-883,40.6h-8.3v12.6h7.7c4.9,0,7.2-2.3,7.2-7.2v1.1 C-876.5,42.7-878.6,40.6-883,40.6z M-891.4,82.9h8.7c4.4,0,6.5-2.1,6.5-6.5v-1c0-4.9-2.3-7.2-7.2-7.2h-8V82.9z" class="st2"/><path d="M-810,25.2v15.9h-21.4v11.6h20.6v15.9h-20.6v13.8h21.8v15.9H-849v-73H-810z" class="st2"/><g class="st2"><path d="M-949.6,121.1V29.6h-10.8V12.9l1.9-0.2c6.3-0.6,9.2-2.2,13.1-7.4l2.6-3.4h14.2v119.2H-949.6z"/><path d="M-930.7,4v115h-16.9V27.5h-10.8V14.8c7.2-0.7,10.5-2.8,14.6-8.2l2-2.6H-930.7 M-926.5-0.2h-4.1h-11.1h-2.1 l-1.2,1.7l-2,2.6c-3.3,4.4-5.5,6-11.6,6.5l-3.8,0.3v3.8v12.8v4.1h4.1h6.7V119v4.1h4.1h16.9h4.1V119V4V-0.2L-926.5-0.2z" class="st4"/></g><g class="st2"><rect width="271.1" height="13.1" x="-1080.8" y="105.9"/></g><rect width="16.4" height="27" x="-974.8" y="98.3" class="st3"/><rect width="6.8" height="27" x="-999.2" y="98.3" class="st3"/><rect width="10.4" height="27" x="-919.1" y="98.3" class="st3"/><rect width="10.4" height="27" x="-927.6" class="st3"/></g><g class="st1"><g class="st2"><path d="M-664.7,139.2V152l122.5-21c0-4.4,0-8.4,0-12.8L-664.7,139.2z"/></g><g class="st2"><path d="M-542.2,121.9c0,4.4,0,8.4,0,12.8h24.5l0.2-12.8H-542.2z"/></g><g class="st2"><polygon points="-408.8 139.2 -517.5 118.2 -517.6 131 -408.8 152"/></g><g class="st2"><polygon points="-666.5 29.2 -530.2 9 -530.2 25.5 -666.5 45.7"/><path d="M-532.1,11.1v12.8l-132.6,19.6V30.8L-532.1,11.1 M-528.4,6.9l-4.2,0.6l-132.6,19.6l-3.1,0.5v3.2v12.8v4.3 l4.2-0.6l132.6-19.6l3.1-0.5v-3.2V11.1V6.9L-528.4,6.9z" class="st4"/></g><g class="st2"><polygon points="-533.9 23.6 -533.9 7.1 -406.9 28.6 -406.9 45.1"/><path d="M-532.1,9.3l123.3,20.8v12.8l-123.3-20.8V9.3 M-535.7,5v4.3v12.8v3.1l3.1,0.5l123.3,20.8l4.3,0.7v-4.3V30.1 V27l-3.1-0.5L-531.5,5.7L-535.7,5L-535.7,5z" class="st4"/></g><path d="M-646.5,129.3V57.8l-18.2,3V48l47.6-7.9v12.8l-15.6,2.6V127L-646.5,129.3z" class="st2"/><path d="M-557.8,92.2V133l-13.8,2.3V95c0-7.3-3.3-10-10.5-8.8l-10.2,1.7v32.5l-13.8,2.3V38.3l25.8-4.3 c15-2.5,22.5,3.7,22.5,18.8V57c0,10.9-3.8,16.9-10.7,20.8C-561.1,78.6-557.8,82.9-557.8,92.2z M-581,46.8l-11.4,1.9v26.9l10.4-1.7 c6.9-1.1,10.2-5,10.2-11.9v-7.6C-571.8,48.2-574.8,45.8-581,46.8z" class="st2"/><path d="M-459.8,98.6v2c0,15-7.4,21.1-22.5,18.4l-25.6-4.7V30l25.2,4.6c15,2.7,22.5,11.5,22.5,26.6v-0.6 c0,10.7-3.6,15.6-10.5,16.9C-463.6,81.6-459.8,87.8-459.8,98.6z M-483,47l-11.2-2v22.3l10.2,1.9c6.9,1.3,10.2-1.4,10.2-8.3v-2.9 C-473.8,51.6-476.7,48.1-483,47z M-494.2,104.4l11.6,2.1c6.2,1.1,9.2-1.3,9.2-7.5v-5.5c0-6.9-3.3-10.8-10.2-12.1l-10.5-1.9V104.4z" class="st2"/><path d="M-409.1,48v12.8l-24.2-4.4v21.7l23.3,4.3V95l-23.3-4.3v24.3l24.6,4.5v12.8l-38.4-7V41.1L-409.1,48z" class="st2"/><g class="st2"><path d="M-540.8,134.5V37.9h-11.4v-17l1.7-0.2c6.7-0.6,9.9-2.4,14.1-7.9l2.6-3.5h14.5v125.2H-540.8z"/><path d="M-521.2,11.1v121.6H-539V36h-11.4V22.5c7.6-0.7,11.1-2.9,15.4-8.6l2.1-2.8H-521.2 M-517.5,7.5h-3.7h-11.8 h-1.8l-1.1,1.5l-2.1,2.8c-3.6,4.8-6.1,6.6-12.8,7.2l-3.3,0.3v3.4V36v3.7h3.7h7.7v93v3.7h3.7h17.8h3.7v-3.7V11.1V7.5L-517.5,7.5z" class="st4"/></g></g><g class="st1"><path d="M-741.2,344.1h-51.4l35.4-214.5h-41.4l4.4-26.9c15.4-1.4,45.9-22.7,45.9-22.7h50.7L-741.2,344.1z" class="st2"/><path d="M-1002.3,307.5l23.5-138.6h-36.2l4.2-29.3h105.9l-4.2,29.3h-39.1l-23.5,138.6H-1002.3z" class="st2"/><path d="M-814.2,262.8l-17.7,97.9h-31.6l17.6-96.9c2.4-14.5-3.1-21-17.5-21h-20.3l-10.7,64.7H-928l27.7-167.9h61.3 c30,0,42.3,14.8,37.4,44.8l-1.4,8.2c-3.6,21.7-12.9,32.4-27.6,37.9C-816.1,234.6-811.1,244.2-814.2,262.8z M-848.2,164.7h-22.7 l-8.5,47.3h20.7c13.8,0,21-0.2,23.3-14l2.5-15.1C-830.9,170.6-835.8,164.7-848.2,164.7z" class="st2"/><path d="M-588.8,258.7l-0.7,4.1c-4.9,30-22.2,44.8-52.2,44.8h-51l27.7-167.9h50.3c30,0,42.3,14.8,37.4,44.8l0.2-1.1 c-3.5,21.3-12.6,32.4-27.2,37.5C-591,226.3-585.3,237.3-588.8,258.7z M-619.4,164.4h-16.4l-7.3,44.3h14.3 c13.8,0,21.4-6.5,23.7-20.3l1-5.8C-602.1,170.2-607,164.4-619.4,164.4z M-655.3,282.7h17.1c12.4,0,19.2-5.9,21.3-18.2l1.8-10.9 c2.3-13.8-3.2-20.3-17-20.3h-15L-655.3,282.7z" class="st2"/><path d="M-468.2,139.6l-4.2,25.5h-42.2l-7.2,43.3h40.5l-4.2,25.1H-526l-8,48.5h42.9l-4.2,25.5h-76.5l27.7-167.9H-468.2 z" class="st2"/><polygon points="-675.6 320.6 -845 320.6 -851.6 360.7 -682.2 360.7" class="st2"/><polygon points="-504.5 360.7 -1026.3 360.7 -1016.7 320.6 -497 320.6" class="st2"/><rect width="548.1" height="8.3" x="-1022.1" y="185.2" class="st3"/><rect width="548.1" height="8.3" x="-1022.1" y="256.6" class="st3"/><polygon points="-708.6 307.5 -718 373.1 -701.6 373.1 -693.1 306.8" class="st3"/><polygon points="-823.5 316.8 -832.9 368.7 -816.5 368.7 -808 316.3" class="st3"/><polygon points="-870.9 316.1 -880.2 368.1 -863.8 368.1 -855.3 315.6" class="st3"/></g><g><path d="M379.3,93.4c0-1.2,0.1-2.4,0.1-3.6c0.1-0.1,0.3-0.1,0.4-0.2c8.1,0.2,16.1,0.4,24.2,0.6l0,0c0,1.2,0,2.4,0,3.6 c0,0.4-0.1,0.6-0.5,0.5c-0.2,0-0.3,0-0.5,0c-7.6-0.2-15.1-0.4-22.7-0.5c-0.3,0-0.5,0-0.8,0C379.4,93.6,379.4,93.5,379.3,93.4z" class="st6"/><path d="M359.3,68.5c-1.2,0-2.4,0-3.6,0c-0.7,0-0.5-0.4-0.5-0.8c0.2-7.4,0.3-14.8,0.5-22.1c0-0.5,0-1.1,0.1-1.6 c0.2,0,0.3,0,0.4-0.1c1,0,2,0,3,0.1c0.2,0.2,0.5,0,0.6,0.3C359.7,52.3,359.5,60.4,359.3,68.5L359.3,68.5z" class="st6"/><path d="M429.8,45.7c0,2.2-0.1,4.4-0.1,6.6c-0.1,5.7-0.3,11.4-0.4,17c0,0.7-0.2,0.9-0.9,0.8c-1.1-0.1-2.2,0-3.2-0.1 l0,0c0-0.2,0-0.4,0-0.6c0.2-7.9,0.4-15.8,0.6-23.7c0.1-0.1,0.1-0.2,0.2-0.3c1.2,0,2.4,0.1,3.6,0.1 C429.7,45.6,429.8,45.6,429.8,45.7z" class="st6"/><path d="M381,23c0-0.9,0-1.9,0-2.8c0-0.4,0.1-0.5,0.5-0.5c0.1,0,0.2,0,0.4,0c7.7,0.2,15.3,0.4,23,0.5 c0.7,0,0.9,0.2,0.8,0.9c-0.1,1.1,0,2.2-0.2,3.2l0,0c-0.2,0-0.4,0-0.6,0c-7.9-0.2-15.8-0.4-23.7-0.6C381,23.5,381.5,23.1,381,23z" class="st6"/><path d="M405.6,24.3c2.5,0.1,5,0.2,7.4,0.2c0.7,0,0.9,0.2,0.8,0.9c-0.1,0.9,0,1.8-0.1,2.7c0,0.4,0.1,0.6,0.6,0.6 c1,0,2,0.1,3,0.1c0.5,0,0.6,0.2,0.6,0.6c0,1.2-0.1,2.3-0.1,3.5l0,0c-1.4,0-2.8,0-4.2-0.1c0-1.1,0-2.3,0.1-3.4 c0-0.5-0.1-0.7-0.7-0.7c-2.5,0-5-0.1-7.6-0.2C405.6,27.1,405.6,25.7,405.6,24.3L405.6,24.3z" class="st6"/><path d="M425.2,70c-0.1,2.4-0.1,4.8-0.2,7.2c0,1.3,0,1-1.1,1c-0.8,0-1.6,0-2.5-0.1c-0.4,0-0.6,0.1-0.6,0.6 c0,1-0.1,2-0.1,3c0,0.4-0.2,0.5-0.6,0.5c-1.2,0-2.4-0.1-3.5-0.1l0,0c0-1.4,0-2.8,0.1-4.2c1.1,0,2.3,0,3.4,0.1 c0.5,0,0.7-0.1,0.7-0.6c0-2.5,0.1-5,0.2-7.6C422.5,70,423.8,70,425.2,70L425.2,70z" class="st6"/><path d="M381,23c0.5,0.1,0,0.6,0.3,0.8c-0.4,0-0.3,0.3-0.3,0.6c0,1.2-0.1,2.3-0.1,3.5c-2.7-0.1-5.5-0.1-8.2-0.2l0,0 c0-1.2,0.1-2.3,0.1-3.5c0-0.6,0.2-0.7,0.7-0.7c2.2,0.1,4.4,0.1,6.6,0.2C380.7,23.8,381,23.6,381,23z" class="st6"/><path d="M404,90.2L404,90.2c0.1-1.4,0.1-2.7,0.1-4.1c2.5,0,5.1,0.1,7.6,0.1c0.2,0,0.6,0.2,0.7-0.3 c0.3,0.1,0.7-0.1,0.8,0.3c-0.7-0.1-0.9,0.2-0.9,0.9c0.1,0.9,0,1.7,0,2.6c0,0.5-0.1,0.7-0.7,0.7C409.1,90.3,406.6,90.3,404,90.2z" class="st6"/><path d="M359.9,44.2c-0.1-0.3-0.5-0.1-0.6-0.3c0.5,0,0.7-0.3,0.7-0.8c0-2.3,0.1-4.5,0.1-6.8c0-0.5,0.1-0.7,0.7-0.7 c1.2,0.1,2.3,0.1,3.5,0.1l0,0c-0.1,2.7-0.1,5.5-0.2,8.2c-1.2,0-2.3-0.1-3.5-0.1C360.2,43.9,359.9,43.8,359.9,44.2z" class="st6"/><path d="M426,45.5c-0.1,0.1-0.1,0.2-0.2,0.3c0-0.4-0.3-0.3-0.5-0.3c-1.2,0-2.4,0-3.7-0.1l-0.1,0c0-0.3,0.1-0.5,0.1-0.8 c0.1-2.5,0.1-5,0.2-7.5l0,0c1.2,0,2.3,0.1,3.5,0.1c0.5,0,0.7,0.2,0.7,0.7c-0.1,2.3-0.1,4.5-0.2,6.8C425.8,44.9,425.7,45.2,426,45.5 z" class="st6"/><path d="M379.9,89.6c-0.1,0.1-0.3,0.1-0.4,0.2c-0.2-0.3-0.6-0.2-0.9-0.2c-2.2-0.1-4.5-0.1-6.7-0.2 c-0.5,0-0.7-0.2-0.7-0.7c0.1-1.2,0.1-2.3,0.1-3.5l0,0c2.7,0.1,5.5,0.2,8.2,0.2c0,1.2,0,2.3-0.1,3.5 C379.4,89.4,379.4,89.7,379.9,89.6z" class="st6"/><path d="M359.3,68.5L359.3,68.5c1.4,0.1,2.7,0.1,4.1,0.1c-0.1,2.7-0.1,5.5-0.2,8.2l0,0c-1.2,0-2.3-0.1-3.5-0.1 c-0.6,0-0.7-0.2-0.7-0.7C359.2,73.5,359.2,71,359.3,68.5z" class="st6"/><path d="M364.2,35.7c0-1.1,0.1-2.3,0.1-3.4c0-0.5,0.1-0.8,0.7-0.7c1.2,0.1,2.3,0,3.5,0.1l0,0c-0.2,1.2-0.1,2.4-0.2,3.6 c0,0.2-0.1,0.4-0.1,0.5C366.9,35.8,365.6,35.8,364.2,35.7L364.2,35.7z" class="st6"/><path d="M417.8,32.8c1.2,0,2.4,0.1,3.5,0.1c0.4,0,0.6,0.2,0.6,0.6c-0.1,1.2-0.1,2.4-0.1,3.6l0,0c-1.3,0-2.7-0.1-4-0.1 C417.7,35.6,417.8,34.2,417.8,32.8L417.8,32.8z" class="st6"/><path d="M367.2,81.1c-1.1,0-2.3-0.1-3.4-0.1c-0.5,0-0.6-0.2-0.6-0.7c0.1-1.2,0.1-2.3,0.1-3.5l0,0 c1.4,0,2.7,0.1,4.1,0.1c0,0.1,0,0.2,0.1,0.3c0,1.2-0.1,2.4-0.1,3.6C367.2,80.9,367.2,81,367.2,81.1L367.2,81.1z" class="st6"/><path d="M371.3,85.3c-1.2,0-2.3-0.1-3.5-0.1c-0.5,0-0.7-0.1-0.6-0.7c0.1-1.1,0.1-2.3,0.1-3.4l0,0 c0.1,0,0.1-0.1,0.2-0.1c0.1,0,0.3,0,0.4,0c0.1,0,0.3,0,0.4,0c1,0,2,0.1,3,0.1c0,0,0.1,0.1,0.1,0.1 C371.3,82.6,371.3,83.9,371.3,85.3L371.3,85.3z" class="st6"/><path d="M368.5,31.6L368.5,31.6c-0.2-1.3,0-2.6,0-3.9c0,0,0.1-0.1,0.1-0.1c1.4,0,2.7,0,4.1,0.1l0,0 c0,1.4-0.1,2.7-0.1,4.1C371.2,31.8,369.8,31.7,368.5,31.6z" class="st6"/><path d="M413.3,86.3c-0.2-0.4-0.5-0.2-0.8-0.3c0-1.2,0.1-2.3,0.1-3.5c0.1,0,0.2-0.1,0.3-0.3c1.1,0,2.2,0.1,3.3,0.1 c0.1,0.3,0.3,0.3,0.5,0.3c0,1.2,0,2.3-0.1,3.5c0,0.1,0,0.1,0,0.2l0,0c-0.1,0-0.2,0.1-0.3,0.1C415.2,86.3,414.2,86.3,413.3,86.3z" class="st6"/><path d="M416.6,82.6c-0.2,0-0.4,0-0.5-0.3c0.2,0,0.4,0,0.6,0l0,0C416.6,82.4,416.6,82.5,416.6,82.6z" class="st6"/><path d="M356.2,43.8c-0.1,0.1-0.3,0.1-0.4,0.1C355.8,43.7,356,43.8,356.2,43.8z" class="st6"/><path d="M429.8,45.7c-0.1-0.1-0.2-0.1-0.3-0.2C429.7,45.5,429.9,45.5,429.8,45.7z" class="st6"/><path d="M379.3,93.4c0,0.1,0.1,0.2,0.1,0.3C379.3,93.7,379.3,93.6,379.3,93.4z" class="st6"/><path d="M416.2,86.3c0.1,0,0.2-0.1,0.3-0.1C416.4,86.4,416.3,86.4,416.2,86.3z" class="st6"/><path d="M416.5,86.3c0-0.1,0-0.1,0-0.2C416.5,86.1,416.5,86.2,416.5,86.3z" class="st6"/><path d="M368.6,27.6C368.6,27.7,368.5,27.7,368.6,27.6C368.5,27.6,368.5,27.6,368.6,27.6z" class="st6"/><path d="M379.9,89.6c-0.5,0-0.5-0.2-0.5-0.6c0-1.2,0.1-2.3,0.1-3.5c0,0,0,0,0.1-0.1c8.2,0.2,16.4,0.4,24.6,0.6 c0,0,0,0,0,0.1c0,1.4-0.1,2.7-0.1,4.1C396,90,387.9,89.8,379.9,89.6z" class="st4"/><path d="M363.4,68.6c-1.4,0-2.7-0.1-4.1-0.1c0.2-8.1,0.4-16.2,0.6-24.3c0-0.4,0.3-0.3,0.6-0.3c1.2,0,2.3,0.1,3.5,0.1 l0,0C363.8,52.2,363.6,60.4,363.4,68.6L363.4,68.6z" class="st4"/><path d="M421.6,45.3c1.2,0,2.4,0,3.7,0.1c0.2,0,0.5,0,0.5,0.3c-0.2,7.9-0.4,15.8-0.6,23.7c0,0.2,0,0.4,0,0.6 c-1.4,0-2.8,0-4.1,0l-0.1,0c0-0.3,0-0.6,0-0.9c0.2-7.6,0.4-15.2,0.5-22.7C421.6,46,421.6,45.7,421.6,45.3z" class="st4"/><path d="M380.9,27.8c0-1.2,0-2.3,0.1-3.5c0-0.2-0.1-0.6,0.3-0.6c7.9,0.2,15.8,0.4,23.7,0.6c0.2,0,0.4,0,0.6,0 c0,1.4,0,2.8,0,4.1l0,0C397.3,28.3,389.1,28.1,380.9,27.8L380.9,27.8z" class="st4"/><path d="M405.5,28.4c2.5,0.1,5,0.2,7.6,0.2c0.5,0,0.7,0.2,0.7,0.7c-0.1,1.1-0.1,2.3-0.1,3.4l0,0 c-2.7-0.1-5.4-0.1-8.2-0.2c0,0,0,0-0.1-0.1C405.4,31.2,405.5,29.8,405.5,28.4L405.5,28.4z" class="st4"/><path d="M417.9,32.8c-0.1,1.4-0.1,2.8-0.1,4.2c0,0,0,0-0.1,0.1c-1.4,0-2.8-0.1-4.2-0.1l0,0c0-1.4,0-2.8,0.1-4.2l0,0 C415.1,32.8,416.5,32.8,417.9,32.8z" class="st4"/><polygon points="368.1 44.1 368.1 44.1 368.1 44.1" class="st6"/><polygon points="367.5 68.7 367.5 68.7 367.5 68.7" class="st6"/><polygon points="404.2 82 404.2 82 404.2 82" class="st6"/><polygon points="412.6 78 412.6 78 412.6 78" class="st6"/><polygon points="371.5 77 371.5 77 371.5 77" class="st6"/><polygon points="372.5 35.9 372.5 35.9 372.5 35.9" class="st6"/><path d="M417,69.1c0.1-2.2,0.1-4.3,0.2-6.5c0.1-5.5,0.3-10.9,0.4-16.4c0-0.8,0-0.9,0.5-0.9c-0.1-0.2-0.3-0.4-0.5-0.6 c-0.1,0.4-0.3,0.6-0.7,0.6c-0.9,0-1.8-0.1-2.7-0.1c-0.6,0-0.7-0.2-0.7-0.7c0.1-2.5,0.1-5,0.2-7.5c-2.5-0.1-5-0.1-7.4-0.2 c-0.6,0-0.8-0.2-0.8-0.8c0.1-1.1,0.1-2.2,0.1-3.3c0,0,0,0-0.1-0.1c-8.2-0.2-16.4-0.4-24.6-0.6c0,1.2-0.1,2.3-0.1,3.5 c0,0.6-0.2,0.7-0.8,0.7c-2.5-0.1-5-0.1-7.5-0.2c-0.1,2.5-0.1,4.9-0.2,7.4c0,0.6-0.2,0.8-0.8,0.8c-1.1-0.1-2.3-0.1-3.4-0.1 c-0.2,8.2-0.4,16.4-0.6,24.6c1.2,0,2.3,0.1,3.5,0.1c0.6,0,0.7,0.2,0.7,0.8c-0.1,2.5-0.1,5-0.2,7.5c2.4,0.1,4.9,0.1,7.3,0.2 c0.9,0,0.9,0,0.9,1c0,1.1-0.1,2.1-0.1,3.2l0,0c8.2,0.2,16.4,0.4,24.6,0.6c0-1.2,0.1-2.3,0.1-3.5c0-0.6,0.2-0.7,0.8-0.7 c2.5,0.1,5,0.1,7.5,0.2c0.1-2.5,0.1-5,0.2-7.4c0-0.7,0.2-0.8,0.9-0.8c0.8,0.1,1.7,0.1,2.5,0.1c0.2,0,0.3,0,0.4,0.1 c0.2-0.1,0.4-0.1,0.6-0.1C417,69.7,417,69.5,417,69.1z M404.9,54.4c-0.1,6.1-0.3,12.2-0.4,18.4c0,1,0,1-1,0.9c-1,0-2.1,0-3.1-0.1 c0,1.1-0.1,2.3-0.1,3.4c0,0.5-0.2,0.7-0.7,0.7c-5.1-0.1-10.1-0.3-15.2-0.4c-0.5,0-0.7-0.2-0.7-0.7c0-1.1,0.1-2.3,0.1-3.4 c-1.1,0-2.2-0.1-3.3-0.1c-0.6,0-0.8-0.2-0.8-0.8c0.2-6.4,0.3-12.7,0.5-19.1c0.1-4.1,0.2-8.1,0.3-12.2c0-0.7,0.2-0.9,0.9-0.9 c1.1,0.1,2.1,0.1,3.2,0.1c0-1.1,0.1-2.3,0.1-3.4c0-0.5,0.2-0.7,0.7-0.7c5.1,0.1,10.1,0.3,15.2,0.4c0.5,0,0.7,0.2,0.7,0.7 c0,1.1-0.1,2.3-0.1,3.4c1.1,0,2.2,0.1,3.3,0.1c0.6,0,0.8,0.2,0.8,0.8C405.1,45.9,405,50.2,404.9,54.4z" class="st6"/><path d="M421,69.9c-1.1,0-2.2-0.1-3.3,0c-0.2,0-0.4,0-0.5-0.1c-0.2,0-0.4,0.1-0.6,0.1c0.2,0.1,0.3,0.3,0.3,0.6 c0.1,2.5-0.1,5-0.1,7.5l0,0.1c1.1,0,2.3,0,3.4,0.1c0.5,0,0.7-0.1,0.7-0.6C420.9,75,421,72.5,421,69.9L421,69.9z" class="st4"/><path d="M417.8,37C417.7,37,417.7,37,417.8,37c-0.1,2.5-0.2,5-0.2,7.5c0,0.1,0,0.1,0,0.1c0.2,0.2,0.4,0.4,0.5,0.6 c0.1,0,0.3,0,0.4,0c1,0,2,0,3,0.1c0-0.3,0.1-0.5,0.1-0.8c0.1-2.5,0.1-5,0.2-7.5C420.5,37.1,419.1,37,417.8,37z" class="st4"/><polygon points="380.8 31.9 380.8 31.9 380.8 31.9" class="st6"/><polygon points="413.6 36.9 413.6 36.9 413.6 36.9" class="st6"/><path d="M416.7,82.3c-0.2,0-0.4,0-0.6,0c-1.1,0-2.2-0.1-3.3-0.1c-0.1,0-0.2,0-0.3,0l0,0c0-1.4,0.1-2.8,0.1-4.2l0,0 c1.4,0,2.8,0,4.2,0.1l0,0.1C416.7,79.5,416.7,80.9,416.7,82.3z" class="st4"/><path d="M372.5,31.7c0-1.4,0.1-2.7,0.1-4.1c2.7,0.1,5.5,0.1,8.2,0.2l0,0c0,1.4-0.1,2.7-0.1,4.1l0,0 C378.1,31.9,375.3,31.8,372.5,31.7L372.5,31.7z" class="st4"/><path d="M412.5,82.5c0,1.2-0.1,2.3-0.1,3.5c-0.1,0.5-0.4,0.3-0.7,0.3c-2.5,0-5.1-0.1-7.6-0.1c0,0,0,0,0-0.1 c0-1.3,0.1-2.7,0.1-4l0,0c2.7,0.1,5.5,0.1,8.2,0.2l0,0.1C412.5,82.3,412.5,82.4,412.5,82.5z" class="st4"/><path d="M364.2,35.7c1.4,0,2.7,0.1,4.1,0.1c-0.1,2.8-0.1,5.5-0.2,8.3l0,0c-1.4,0-2.7-0.1-4.1-0.1l0,0 C364.1,41.2,364.1,38.5,364.2,35.7z" class="st4"/><path d="M421,69.9c-1.1,0-2.2-0.1-3.3,0c-0.6,0-0.7-0.2-0.7-0.8c0.1-2.2,0.1-4.3,0.2-6.5c0.1-5.5,0.3-10.9,0.4-16.4 c0-1,0-1,1-0.9c1,0,2,0,3,0.1l0.1,0c0,0.3,0,0.7,0,1c-0.2,7.6-0.4,15.2-0.5,22.7C421.1,69.4,421,69.7,421,69.9z" class="st6"/><path d="M371.3,85.3c0-1.4,0.1-2.7,0.1-4.1c2.7,0,5.5,0.1,8.2,0.1c0,0,0,0,0,0c0,1.3-0.1,2.7-0.1,4c0,0,0,0-0.1,0.1 C376.8,85.5,374,85.4,371.3,85.3z" class="st4"/><path d="M367.3,77c-1.4,0-2.7-0.1-4.1-0.1c0.1-2.7,0.1-5.5,0.2-8.2l0,0c1.4,0,2.7,0.1,4.1,0.1l0,0 C367.4,71.4,367.3,74.2,367.3,77z" class="st4"/><path d="M368.1,44.1c0.1-2.8,0.1-5.5,0.2-8.3c0-0.2,0.1-0.4,0.1-0.5c0.1,0.5,0.3,0.6,0.8,0.6c1.1,0,2.2,0,3.3,0.1 c-0.1,2.5-0.1,5-0.2,7.4c0,0.6-0.2,0.8-0.8,0.8C370.3,44.1,369.2,44.1,368.1,44.1z" class="st6"/><path d="M372.5,35.9c-1.1,0-2.2-0.1-3.3-0.1c-0.5,0-0.7-0.1-0.8-0.6c0-1.2-0.1-2.4,0.2-3.6c1.3,0.1,2.7,0.1,4.1,0.1 l0,0C372.5,33.1,372.5,34.5,372.5,35.9L372.5,35.9z" class="st4"/><path d="M367.3,77c0.1-2.8,0.1-5.5,0.2-8.3c1.2,0,2.3,0.1,3.5,0.1c0.6,0,0.7,0.2,0.7,0.8c-0.1,2.5-0.1,5-0.2,7.5 c-1.1,0-2.2,0-3.3-0.1c-0.3,0-0.6,0-0.9,0.3C367.3,77.1,367.3,77.1,367.3,77z" class="st6"/><path d="M367.3,77.2c0.2-0.3,0.5-0.3,0.9-0.3c1.1,0,2.2,0.1,3.3,0.1l0,0c0,0.6,0,1.1,0,1.7c-0.1,0.8,0.1,1.7-0.2,2.5 c-1,0-2-0.1-3-0.1c-0.1-0.1-0.3-0.1-0.4,0c-0.1,0-0.3,0-0.4,0c0-0.1-0.1-0.1-0.1-0.2C367.3,79.6,367.3,78.4,367.3,77.2z" class="st4"/><path d="M367.3,80.9c0,0.1,0.1,0.1,0.1,0.2c-0.1,0-0.1,0.1-0.2,0.1C367.2,81,367.2,80.9,367.3,80.9z" class="st6"/><path d="M371.2,81.2c0.3-0.8,0.1-1.7,0.2-2.5c0-0.5,0-1.1,0-1.7c2.4,0.1,4.9,0.1,7.3,0.2c0.9,0,0.9,0,0.9,1 c0,1.1-0.1,2.1-0.1,3.2c-2.7-0.1-5.5-0.1-8.2-0.1C371.3,81.2,371.3,81.2,371.2,81.2z" class="st6"/><path d="M367.8,81.1c0.1-0.1,0.3-0.1,0.4,0C368.1,81.1,367.9,81.1,367.8,81.1z" class="st6"/><path d="M412.5,82.5c0-0.1,0-0.2,0-0.3c0.1,0,0.2,0,0.3,0C412.8,82.4,412.7,82.5,412.5,82.5z" class="st6"/><path d="M379.6,85.5c0-1.3,0.1-2.7,0.1-4c8.2,0.2,16.4,0.4,24.6,0.6c0,1.3-0.1,2.7-0.1,4 C395.9,85.9,387.7,85.7,379.6,85.5z" class="st6"/><path d="M367.5,68.7c-1.4,0-2.7-0.1-4.1-0.1c0.2-8.2,0.4-16.4,0.6-24.6c1.4,0,2.7,0.1,4.1,0.1 C367.9,52.3,367.7,60.5,367.5,68.7z" class="st6"/><path d="M380.8,31.9c0-1.4,0.1-2.7,0.1-4.1c8.2,0.2,16.4,0.4,24.6,0.6c0,1.3-0.1,2.7-0.1,4 C397.2,32.3,389,32.1,380.8,31.9z" class="st6"/><path d="M413.6,36.9c-2.5-0.1-5-0.1-7.4-0.2c-0.6,0-0.8-0.2-0.8-0.8c0.1-1.1,0.1-2.2,0.1-3.3c2.7,0.1,5.4,0.1,8.2,0.2 C413.6,34.1,413.6,35.5,413.6,36.9z" class="st6"/><path d="M417.7,37.1c0,2.5-0.1,5-0.1,7.4c0,0.5-0.2,0.7-0.8,0.7c-0.9,0-1.8-0.1-2.7-0.1c-0.6,0-0.7-0.2-0.7-0.7 c0.1-2.5,0.1-5,0.2-7.5C414.9,37,416.3,37,417.7,37.1z" class="st6"/><path d="M383.9,73.3c-1.1,0-2.2-0.1-3.3-0.1c-0.6,0-0.8-0.2-0.8-0.8c0.2-6.4,0.3-12.7,0.5-19.1 c0.1-4.1,0.2-8.1,0.3-12.2c0-0.7,0.2-0.9,0.9-0.9c1.1,0.1,2.1,0.1,3.2,0.1l0,0c-0.1,3.2-0.1,6.5-0.2,9.7 C384.3,57.7,384.1,65.5,383.9,73.3L383.9,73.3z" class="st4"/><path d="M401.2,40.7c1.1,0,2.2,0.1,3.3,0.1c0.6,0,0.8,0.2,0.8,0.8c-0.1,4.3-0.2,8.6-0.3,12.9 c-0.1,6.1-0.3,12.2-0.4,18.4c0,1,0,1-1,0.9c-1,0-2.1,0-3.1-0.1l0,0C400.6,62.7,400.9,51.7,401.2,40.7L401.2,40.7z" class="st6"/><path d="M400.4,73.7c0,1.1-0.1,2.3-0.1,3.4c0,0.5-0.2,0.7-0.7,0.7c-5.1-0.1-10.1-0.3-15.2-0.4c-0.5,0-0.7-0.2-0.7-0.7 c0-1.1,0.1-2.3,0.1-3.4l0,0C389.4,73.4,394.9,73.5,400.4,73.7L400.4,73.7z" class="st6"/><path d="M384.7,40.3c0-1.1,0.1-2.3,0.1-3.4c0-0.5,0.2-0.7,0.7-0.7c5.1,0.1,10.1,0.3,15.2,0.4c0.5,0,0.7,0.2,0.7,0.7 c0,1.1-0.1,2.3-0.1,3.4l0,0C395.7,40.5,390.2,40.4,384.7,40.3L384.7,40.3z" class="st4"/><path d="M372.5,35.9c0-1.4,0.1-2.8,0.1-4.2c2.7,0.1,5.5,0.1,8.2,0.2c0,1.2-0.1,2.3-0.1,3.5c0,0.6-0.2,0.7-0.8,0.7 C377.5,36,375,36,372.5,35.9z" class="st6"/><path d="M412.5,82.2c-2.7-0.1-5.5-0.1-8.2-0.2c0-1.2,0.1-2.3,0.1-3.5c0-0.6,0.2-0.7,0.8-0.7c2.5,0.1,5,0.1,7.5,0.2 C412.5,79.4,412.5,80.8,412.5,82.2z" class="st6"/><path d="M416.7,78.1c-1.4,0-2.8,0-4.2-0.1c0.1-2.5,0.1-5,0.2-7.4c0-0.7,0.2-0.8,0.9-0.8c0.8,0.1,1.7,0.1,2.5,0.1 c0.5,0,0.7,0.2,0.7,0.7C417,73.1,416.8,75.6,416.7,78.1z" class="st6"/><path d="M384.7,40.3c5.5,0.1,11,0.3,16.5,0.4c-0.3,11-0.5,22-0.8,33c-5.5-0.1-11-0.3-16.5-0.4 c0.2-7.8,0.4-15.5,0.6-23.3C384.5,46.7,384.6,43.5,384.7,40.3z" class="st6"/></g><g><path d="M305.7,240.5c1.6,1.7,2.6,3.2,4,4.3c4,3.2,8.2,6.3,12.3,9.4c1.5,1.1,3.2,2,4.4,3.3c4.5,4.8,15.5,2.1,17.6-3.8 c0.3-0.9,0.8-1.7,1.1-2.5c0.6-1.3,1.4-1.9,2.9-1.6c3.6,0.7,10.1-2.5,11-5.2c0.4-1.4,0.7-2.8,1.4-4c0.3-0.5,1.6-1.2,1.9-1 c2.7,1.9,5.8,1.6,8.8,2c0.6,0.1,1.2,0.5,2.4,1c-12.6,10.2-17.4,23.6-18.8,38.6c0,0.4,0.3,0.9,0.9,1.2c3.3-9.2,6.4-18,13-24.9 c6.4-6.7,13.3-12.9,20.3-19.8c-1-0.1-2-0.4-2.9-0.4c-7.2,0.4-14.1-1-20.6-4.3c-3.7-1.9-6.8-7.8-2.9-12c1.4-1.5,3.6-2.3,5.6-3 c7.5-2.8,15.1-5.5,22.7-8.1c2.4-0.8,5-1.1,7.5-1.1c1.3,0,2.9,0.9,3.8,1.9c4.1,4.6,8.1,9.3,11.9,14.1c0.9,1.1,1.8,2.8,1.7,4.2 c-0.8,7.7-1.9,15.4-2.9,23.2c-0.4,3.2-0.7,6.4-1.3,9.5c-0.8,4.5-1.7,9.1-2.9,13.5c-1.2,4.6-2.7,9-4.2,13.5 c-1.4,4.2-4.7,6.7-8.8,7.7c-3.3,0.8-6.8,1-10.3,1.2c-10.8,0.4-21.5,0.7-32.3,1.1c-7.5,0.3-15.1,1.1-22.6,0.7 c-13.6-0.6-19.2-4.4-24.9-16.7c-0.9-2-1.3-4.4-1.2-6.6c0.2-11.2,0.6-22.4,1-33.6C305.2,241.9,305.4,241.6,305.7,240.5z" class="st7"/><path d="M378.5,307.7c0.1,0.6,0.2,1,0.2,1.4c-0.6,5.2-1.2,10.4-1.8,15.6c-0.3,2.9-0.8,5.9-1.1,8.8 c-0.4,4.1-0.7,8.3-1.3,12.4c-0.8,5.1-1.9,10.2-2.8,15.3c-0.5,2.7-1.2,5.5-1.2,8.2c-0.1,2.2-0.8,2.8-2.9,2.6 c-1.8-0.2-3.6-0.1-5.4-0.1c-9.1,0.3-18.2,0.1-27.2,1.3c-4.5,0.6-9.1,0.7-13.7,0.3c-2.6-0.2-5.1,0.8-7.6,0.3c-2.4-0.6-3.2-3.5-2.1-6 c0.8-1.9,1.2-3.9,1.6-5.9c0.6-2.8,1.2-5.5,1.7-8.3c0.4-2,0.9-4.1,1.3-6.1c1.4-6.8,2.8-13.6,4-20.4c0.6-3.4,0.8-6.9,1.2-10.3 c0.3-2.4,0.5-4.9,1.2-7.2c0.3-0.8,1.9-1.6,2.9-1.7c3-0.3,5.9-0.2,8.9-0.2c13.8,0,27.6,0,41.4,0 C376.8,307.5,377.6,307.6,378.5,307.7z" class="st7"/><path d="M383.8,171.3c-3.2,0-6.5,0-9.7,0c-3.3,0-3.8-0.7-2.9-3.8c0.1-0.5,0.3-1,0.3-1.5c0.4-5.7,0.7-11.3,1.2-17 c0.5-5.1,1.3-10.1,1.7-15.1c0.3-4.1,0.2-8.3,0.2-12.4c0-3.2,3.9-7.9,7-8.4c2.6-0.4,5.3-1.2,7.9-0.8c2.4,0.3,4.7,1.7,6.8,3 c0.9,0.5,1.8,1.8,1.8,2.7c0.2,4.6,0.3,9.2,0.3,13.8c0,5.4,0,10.9-0.3,16.3c-0.4,7.3-1.2,14.5-1.8,21.8c-0.1,1.6-1.1,1.7-2.3,1.7 c-3.4,0-6.8,0-10.2,0C383.8,171.5,383.8,171.4,383.8,171.3z" class="st7"/><path d="M320.3,210.4c-0.2-7.4,7.2-14.8,14.3-14.3c1.2,0.1,2.7,1.2,3.2,2.2c1.6,3.1,2.6,6.5,4,9.7 c2.4,5.5,5.1,10.9,7.3,16.4c1.9,4.7,3.5,9.5,5,14.4c0.3,0.9-0.6,2.6-1.4,3.4c-5,4.1-8.9,3.4-12.9-1.8c-3.3-4.3-7.5-8.1-10.6-12.6 c-3.3-4.7-5.8-10-8.6-15.1C320.3,211.9,320.4,210.9,320.3,210.4z" class="st7"/><path d="M354.9,224.6c-1-1.3-1.7-2.1-2.2-2.9c-2.8-5.4-5.7-10.7-8.2-16.2c-1.6-3.5-2.2-7.3-1.5-11.2 c0.8-4.1,4.1-6.4,7.6-7.2c3.8-0.9,8.2-1.3,11.6,1.7c0.8,0.7,1.6,1.5,2.2,2.3c3.3,5,5.6,10.6,7.7,16.2c0.7,1.8-1,4.1-3.4,4.9 c-2.7,0.9-5.4,1.7-8.1,2.6c-3.3,1.2-4.9,3.8-5.5,7.1C355.2,222.6,355.1,223.2,354.9,224.6z" class="st7"/><path d="M306.1,228.4c-1-4,1.3-7.3,4.3-10.4c2.4-2.5,5.1-2.4,7.3,0.3c3.8,4.7,7.4,9.4,11.1,14.1 c2.7,3.5,5.6,7,8.1,10.7c1.2,1.8,2.1,4,2.5,6.2c0.3,1.7-1.3,2.7-3,3c-3.9,0.6-7.6-0.3-10.8-2.7c-5.9-4.4-11.8-8.7-17.6-13.2 C306,234.8,306.1,234.7,306.1,228.4z" class="st7"/><path d="M395.2,184.8c-0.1,2.2-0.2,4.2-0.3,6.2c-0.3,3.1-0.7,6.2-0.8,9.4c-0.2,3.6-2,5.5-5.6,5.8 c-2.2,0.2-4.3,0.7-6.4,1.4c-3.1,1-4.9,0.5-6.2-2.4c-2.3-5.1-4.5-10.2-6.7-15.3c-1.2-2.7,0.4-5.3,3.3-5.3c6.7,0,13.5-0.1,20.2-0.1 C393.4,184.6,394.2,184.7,395.2,184.8z" class="st7"/></g><polygon points="386.2 423.9 281.9 423.9 288.5 381.5 392 381.5" class="st7"/><g><polygon points="136.3 308.5 105 308.5 94 373.1 125.4 373.1" class="st7"/><polygon points="140.6 283.3 180.6 283.3 184.9 253.4 76.6 253.4 72.2 283.3 109.3 283.3 106.4 300.1 137.8 300.1" class="st7"/><polygon points="85.2 425.2 116.5 425.2 123.9 381.6 92.6 381.6" class="st7"/><polygon points="235.3 434.8 228.1 479.7 259.5 479.7 277.3 381.6 245 381.6" class="st7"/><polygon points="161.2 425.2 195.5 425.2 202.7 381.6 168.4 381.6" class="st7"/><path d="M260.9,346.4c14.8-5.6,24.3-16.3,28.1-37.8h-32.3l-0.8,4.7c-2.3,14.1-9.7,14.3-23.8,14.3H211l3.4-19h-33.9 l-10.7,64.6h34.3l2.3-14.1h20.8c12.1,0,18,4.4,18.5,14.1h32.7C279.5,358.2,274,350.1,260.9,346.4z" class="st7"/><path d="M219.6,279.1h23.3c12.7,0,17.7,6,15.6,18.7l-0.4,2.3h32.3l0.1-0.9c5.1-30.7-7.6-45.8-38.3-45.8h-62.7 l-7.7,46.7h34L219.6,279.1z" class="st7"/><path d="M457.8,399.8h-17.5l3-18.3h-34l-7.2,43.6h52.2c29.9,0,47.5-14.4,53-43.6h-27.8 C477.3,394,470.3,399.8,457.8,399.8z" class="st7"/><path d="M520.4,298.1c0,0.2-0.1,0.4-0.1,0.7c0,0.2,0,0.3-0.1,0.5L520.4,298.1z" class="st7"/><path d="M460.3,278.8h16.8c12.7,0,17.7,6,15.6,18.7l-0.4,2.6H520c0.1-0.4,0.2-0.9,0.2-1.3c4.9-30.3-7.8-45.4-38.3-45.4 h-51.5l-7.7,46.7h34L460.3,278.8z" class="st7"/><path d="M492.6,336.5c12.4-4.4,20.8-12.8,25.4-27.9h-27.5c-3.3,10.5-10.8,15.6-23,15.6h-14.7l2.6-15.6h-34l-10.7,64.6 h34l4-23.9H464c14.1,0,19.7,6.7,17.4,20.8l-0.5,3.1h27.8C511.6,352.7,505.6,341.9,492.6,336.5z" class="st7"/><polygon points="534.4 373.1 568.8 373.1 572.7 349.5 614.1 349.5 618.4 323.8 576.9 323.8 579.4 308.5 545.1 308.5" class="st7"/><polygon points="525.8 425.2 604.1 425.2 608.4 399.1 564.5 399.1 567.4 381.6 533 381.6" class="st7"/><polygon points="627.5 279.5 631.8 253.4 554.2 253.4 546.5 300.1 580.8 300.1 584.2 279.5" class="st7"/></g><g><path d="M304.5,239.3c1.6,1.7,2.6,3.2,4,4.3c4,3.2,8.2,6.3,12.3,9.4c1.5,1.1,3.2,2,4.4,3.3c4.5,4.8,15.5,2.1,17.6-3.8 c0.3-0.9,0.8-1.7,1.1-2.5c0.6-1.3,1.4-1.9,2.9-1.6c3.6,0.7,10.1-2.5,11-5.2c0.4-1.4,0.7-2.8,1.4-4c0.3-0.5,1.6-1.2,1.9-1 c2.7,1.9,5.8,1.6,8.8,2c0.6,0.1,1.2,0.5,2.4,1c-12.6,10.2-17.4,23.6-18.8,38.6c0,0.4,0.3,0.9,0.9,1.2c3.3-9.2,6.4-18,13-24.9 c6.4-6.7,13.3-12.9,20.3-19.8c-1-0.1-2-0.4-2.9-0.4c-7.2,0.4-14.1-1-20.6-4.3c-3.7-1.9-6.8-7.8-2.9-12c1.4-1.5,3.6-2.3,5.6-3 c7.5-2.8,15.1-5.5,22.7-8.1c2.4-0.8,5-1.1,7.5-1.1c1.3,0,2.9,0.9,3.8,1.9c4.1,4.6,8.1,9.3,11.9,14.1c0.9,1.1,1.8,2.8,1.7,4.2 c-0.8,7.7-1.9,15.4-2.9,23.2c-0.4,3.2-0.7,6.4-1.3,9.5c-0.8,4.5-1.7,9.1-2.9,13.5c-1.2,4.6-2.7,9-4.2,13.5 c-1.4,4.2-4.7,6.7-8.8,7.7c-3.3,0.8-6.8,1-10.3,1.2c-10.8,0.4-21.5,0.7-32.3,1.1c-7.5,0.3-15.1,1.1-22.6,0.7 c-13.6-0.6-19.2-4.4-24.9-16.7c-0.9-2-1.3-4.4-1.2-6.6c0.2-11.2,0.6-22.4,1-33.6C304.1,240.8,304.2,240.4,304.5,239.3z" class="st6"/><path d="M377.4,306.5c0.1,0.6,0.2,1,0.2,1.4c-0.6,5.2-1.2,10.4-1.8,15.6c-0.3,2.9-0.8,5.9-1.1,8.8 c-0.4,4.1-0.7,8.3-1.3,12.4c-0.8,5.1-1.9,10.2-2.8,15.3c-0.5,2.7-1.2,5.5-1.2,8.2c-0.1,2.2-0.8,2.8-2.9,2.6 c-1.8-0.2-3.6-0.1-5.4-0.1c-9.1,0.3-18.2,0.1-27.2,1.3c-4.5,0.6-9.1,0.7-13.7,0.3c-2.6-0.2-5.1,0.8-7.6,0.3c-2.4-0.6-3.2-3.5-2.1-6 c0.8-1.9,1.2-3.9,1.6-5.9c0.6-2.8,1.2-5.5,1.7-8.3c0.4-2,0.9-4.1,1.3-6.1c1.4-6.8,2.8-13.6,4-20.4c0.6-3.4,0.8-6.9,1.2-10.3 c0.3-2.4,0.5-4.9,1.2-7.2c0.3-0.8,1.9-1.6,2.9-1.7c3-0.3,5.9-0.2,8.9-0.2c13.8,0,27.6,0,41.4,0 C375.6,306.4,376.5,306.5,377.4,306.5z" class="st8"/><path d="M382.7,170.2c-3.2,0-6.5,0-9.7,0c-3.3,0-3.8-0.7-2.9-3.8c0.1-0.5,0.3-1,0.3-1.5c0.4-5.7,0.7-11.3,1.2-17 c0.5-5.1,1.3-10.1,1.7-15.1c0.3-4.1,0.2-8.3,0.2-12.4c0-3.2,3.9-7.9,7-8.4c2.6-0.4,5.3-1.2,7.9-0.8c2.4,0.3,4.7,1.7,6.8,3 c0.9,0.5,1.8,1.8,1.8,2.7c0.2,4.6,0.3,9.2,0.3,13.8c0,5.4,0,10.9-0.3,16.3c-0.4,7.3-1.2,14.5-1.8,21.8c-0.1,1.6-1.1,1.7-2.3,1.7 c-3.4,0-6.8,0-10.2,0C382.7,170.4,382.7,170.3,382.7,170.2z" class="st6"/><path d="M319.2,209.2c-0.2-7.4,7.2-14.8,14.3-14.3c1.2,0.1,2.7,1.2,3.2,2.2c1.6,3.1,2.6,6.5,4,9.7 c2.4,5.5,5.1,10.9,7.3,16.4c1.9,4.7,3.5,9.5,5,14.4c0.3,0.9-0.6,2.6-1.4,3.4c-5,4.1-8.9,3.4-12.9-1.8c-3.3-4.3-7.5-8.1-10.6-12.6 c-3.3-4.7-5.8-10-8.6-15.1C319.1,210.8,319.3,209.8,319.2,209.2z" class="st6"/><path d="M353.8,223.5c-1-1.3-1.7-2.1-2.2-2.9c-2.8-5.4-5.7-10.7-8.2-16.2c-1.6-3.5-2.2-7.3-1.5-11.2 c0.8-4.1,4.1-6.4,7.6-7.2c3.8-0.9,8.2-1.3,11.6,1.7c0.8,0.7,1.6,1.5,2.2,2.3c3.3,5,5.6,10.6,7.7,16.2c0.7,1.8-1,4.1-3.4,4.9 c-2.7,0.9-5.4,1.7-8.1,2.6c-3.3,1.2-4.9,3.8-5.5,7.1C354.1,221.4,354,222.1,353.8,223.5z" class="st6"/><path d="M304.9,227.3c-1-4,1.3-7.3,4.3-10.4c2.4-2.5,5.1-2.4,7.3,0.3c3.8,4.7,7.4,9.4,11.1,14.1 c2.7,3.5,5.6,7,8.1,10.7c1.2,1.8,2.1,4,2.5,6.2c0.3,1.7-1.3,2.7-3,3c-3.9,0.6-7.6-0.3-10.8-2.7c-5.9-4.4-11.8-8.7-17.6-13.2 C304.9,233.7,305,233.6,304.9,227.3z" class="st6"/><path d="M394.1,183.7c-0.1,2.2-0.2,4.2-0.3,6.2c-0.3,3.1-0.7,6.2-0.8,9.4c-0.2,3.6-2,5.5-5.6,5.8 c-2.2,0.2-4.3,0.7-6.4,1.4c-3.1,1-4.9,0.5-6.2-2.4c-2.3-5.1-4.5-10.2-6.7-15.3c-1.2-2.7,0.4-5.3,3.3-5.3c6.7,0,13.5-0.1,20.2-0.1 C392.3,183.5,393,183.6,394.1,183.7z" class="st6"/></g><g><path d="M225.6,357.2h-20.8l-2.3,14.1h41.6C243.6,361.7,237.6,357.2,225.6,357.2z" class="st9"/><path d="M287.4,306.7c-3.8,21.6-13.3,32.3-28.1,37.8c13.1,3.7,18.5,11.8,17.5,26.8h132.3l10.7-64.6H287.4z" class="st9"/><path d="M230.5,325.7c14.1,0,21.5-0.2,23.8-14.3l0.8-4.7h-42.4l-3.4,19H230.5z" class="st9"/><path d="M465.8,322.3c12.2,0,19.7-5.1,23-15.6h-35.1l-2.6,15.6H465.8z" class="st9"/><path d="M491,295.6c2.1-12.7-2.9-18.7-15.6-18.7h-16.8l-3.5,21.3h35.5L491,295.6z" class="st9"/><path d="M490.9,334.7c13.1,5.5,19,16.2,16.1,36.6h25.8l10.7-64.6h-27.1C511.7,321.9,503.3,330.3,490.9,334.7z" class="st9"/><path d="M462.4,347.4H447l-4,23.9h36.2l0.5-3.1C482.1,354.1,476.5,347.4,462.4,347.4z" class="st9"/><path d="M438.6,398h17.5c12.5,0,19.5-5.9,21.7-18.3h-36.2L438.6,398z" class="st9"/><path d="M256.9,296c2.1-12.7-2.9-18.7-15.6-18.7H218l-3.8,21h42.2L256.9,296z" class="st9"/><polygon points="134.7 306.7 123.7 371.3 168.2 371.3 178.8 306.7" class="st9"/><polygon points="134.7 306.7 103.3 306.7 92.4 371.3 123.7 371.3" class="st8"/><polygon points="139 281.5 178.9 281.5 183.2 251.6 74.9 251.6 70.6 281.5 107.6 281.5 104.8 298.3 136.1 298.3" class="st6"/><polygon points="83.5 423.4 114.9 423.4 122.3 379.8 90.9 379.8" class="st10"/><polygon points="233.7 433 226.5 477.9 257.9 477.9 275.6 379.8 243.4 379.8" class="st10"/><polygon points="159.5 423.4 193.9 423.4 201.1 379.8 166.8 379.8" class="st10"/><path d="M259.3,344.6c14.8-5.6,24.3-16.3,28.1-37.8h-32.3l-0.8,4.7c-2.3,14.1-9.7,14.3-23.8,14.3h-21.1l3.4-19h-33.9 l-10.7,64.6h34.3l2.3-14.1h20.8c12.1,0,18,4.4,18.5,14.1h32.7C277.8,356.4,272.3,348.3,259.3,344.6z" class="st8"/><path d="M218,277.3h23.3c12.7,0,17.7,6,15.6,18.7l-0.4,2.3h32.3l0.1-0.9c5.1-30.7-7.6-45.8-38.3-45.8h-62.7l-7.7,46.7 h34L218,277.3z" class="st6"/><path d="M456.1,398h-17.5l3-18.3h-34l-7.2,43.6h52.2c29.9,0,47.5-14.4,53-43.6h-27.8C475.6,392.2,468.7,398,456.1,398 z" class="st10"/><path d="M518.8,296.3c0,0.2-0.1,0.4-0.1,0.7c0,0.2,0,0.3-0.1,0.5L518.8,296.3z"/><path d="M458.6,277h16.8c12.7,0,17.7,6,15.6,18.7l-0.4,2.6h27.8c0.1-0.4,0.2-0.9,0.2-1.3c4.9-30.3-7.8-45.4-38.3-45.4 h-51.5l-7.7,46.7h34L458.6,277z" class="st6"/><path d="M490.9,334.7c12.4-4.4,20.8-12.8,25.4-27.9h-27.5c-3.3,10.5-10.8,15.6-23,15.6h-14.7l2.6-15.6h-34l-10.7,64.6 h34l4-23.9h15.4c14.1,0,19.7,6.7,17.4,20.8l-0.5,3.1H507C509.9,350.9,504,340.1,490.9,334.7z" class="st8"/><polygon points="532.8 371.3 567.1 371.3 571 347.7 612.5 347.7 616.7 322 575.3 322 577.8 306.7 543.5 306.7" class="st8"/><polygon points="524.2 423.4 602.4 423.4 606.8 397.3 562.8 397.3 565.7 379.8 531.4 379.8" class="st10"/><polygon points="625.8 277.7 630.1 251.6 552.6 251.6 544.9 298.3 579.2 298.3 582.6 277.7" class="st6"/></g><polygon points="385.1 422.8 280.8 422.8 287.4 380.4 390.9 380.4" class="st10"/></svg>